<svg width="152" height="79" viewBox="0 0 152 79" fill="none" xmlns="http://www.w3.org/2000/svg">
<path d="M5.34805 78.1108V68.9075H2.04218V67.2227H10.5714V68.9075H7.26556V78.1108H5.34805Z" fill="#9E1C33"/>
<path d="M12.1903 78.1108V67.2227H19.6718V68.9075H14.1078V71.7223H19.5827V73.4019H14.1078V76.4417H19.6718V78.1108H12.1903Z" fill="#9E1C33"/>
<path d="M28.9554 78.1108L25.8696 73.8623L22.8309 78.1108H20.5414L24.6175 72.5229L20.7877 67.2227H23.0772L25.8696 71.2148L28.6725 67.2227H30.9777L27.1322 72.5229L31.2449 78.1108H28.9554Z" fill="#9E1C33"/>
<path d="M35.059 78.1108V68.9075H31.7531V67.2227H40.2824V68.9075H36.9765V78.1108H35.059Z" fill="#9E1C33"/>
<path d="M41.9013 78.1108V67.2227H43.8188V78.1108H41.9013Z" fill="#9E1C33"/>
<path d="M46.0088 78.1108V67.2227H47.9263V76.447H52.741V78.1108H46.0088Z" fill="#9E1C33"/>
<path d="M54.4228 78.1108V67.2227H61.9042V68.9075H56.3403V71.7223H61.7889V73.4019H56.3403V76.4417H61.9042V78.1108H54.4228Z" fill="#9E1C33"/>
<path d="M74.9496 78.1107C74.6876 77.8701 74.3471 77.5404 73.9856 77.1637C73.1387 77.9038 72.0513 78.3111 70.926 78.3096C68.9927 78.3096 67.421 77.2631 67.421 75.2017C67.421 73.5222 68.5369 72.6536 69.7943 72.0153C69.3432 71.2905 69.0786 70.4654 69.0242 69.6137C69.0242 68.1592 70.2868 67.0448 71.9895 67.0448C73.4617 67.0448 74.6719 67.8453 74.6719 69.2684C74.6719 70.9218 73.315 71.6386 71.9581 72.2926C72.3353 72.8158 72.7282 73.2919 73.0373 73.653C73.3988 74.0925 73.7551 74.5163 74.1166 74.9087C74.582 74.2009 74.9453 73.4312 75.1958 72.6222L76.5894 73.2606C76.1916 74.2185 75.6853 75.1278 75.0806 75.9708C75.7354 76.6562 76.427 77.3626 77.2129 78.1107H74.9496ZM73.0216 76.1853C72.4662 75.5941 71.9738 75.0238 71.6804 74.6628C71.2488 74.1605 70.8431 73.6366 70.4649 73.0931C70.1018 73.2802 69.7952 73.5606 69.577 73.9056C69.3587 74.2505 69.2366 74.6474 69.2232 75.0552C69.2157 75.307 69.2604 75.5577 69.3546 75.7914C69.4488 76.0251 69.5904 76.2369 69.7705 76.4133C69.9506 76.5897 70.1653 76.727 70.4011 76.8166C70.637 76.9061 70.8888 76.9459 71.1408 76.9335C71.8362 76.9122 72.5019 76.6474 73.0216 76.1853ZM71.2874 71.309C72.3353 70.8171 73.1526 70.2939 73.1526 69.3783C73.1527 69.2364 73.124 69.0959 73.0681 68.9654C73.0122 68.8349 72.9303 68.7171 72.8274 68.6192C72.7245 68.5214 72.6027 68.4454 72.4694 68.396C72.3362 68.3466 72.1943 68.3248 72.0524 68.3319C71.8761 68.331 71.7015 68.3659 71.5391 68.4343C71.3767 68.5027 71.2299 68.6032 71.1075 68.7299C70.985 68.8565 70.8896 69.0066 70.8269 69.1711C70.7642 69.3356 70.7355 69.5111 70.7426 69.687C70.7871 70.2643 70.9743 70.8216 71.2874 71.309Z" fill="#9E1C33"/>
<path d="M90.5359 78.1108L89.7343 76.0179H84.7257L83.9242 78.1108H81.7447L86.0355 67.207H88.4245L92.7101 78.1108H90.5359ZM87.23 69.122L85.2654 74.3227H89.1947L87.23 69.122Z" fill="#9E1C33"/>
<path d="M93.8889 78.1108V67.2227H98.6932C100.983 67.2227 102.245 68.7923 102.245 70.6445C102.245 72.4967 100.967 74.0402 98.6932 74.0402H95.796V78.1108H93.8889ZM100.291 70.6288C100.296 70.39 100.25 70.153 100.157 69.9329C100.064 69.7128 99.9262 69.5146 99.752 69.3509C99.5778 69.1873 99.3712 69.0619 99.1455 68.9828C98.9199 68.9038 98.6801 68.8727 98.4417 68.8918H95.8222V72.3554H98.4417C98.6781 72.3751 98.9159 72.3453 99.1401 72.2681C99.3643 72.1909 99.5699 72.0679 99.7439 71.9069C99.9179 71.746 100.056 71.5506 100.151 71.3333C100.245 71.1159 100.293 70.8814 100.291 70.6445V70.6288Z" fill="#9E1C33"/>
<path d="M103.859 78.1108V67.2227H108.674C110.963 67.2227 112.226 68.7923 112.226 70.6445C112.226 72.4967 110.947 74.0402 108.674 74.0402H105.776V78.1108H103.859ZM110.261 70.6288C110.266 70.39 110.22 70.153 110.127 69.9329C110.034 69.7128 109.896 69.5146 109.722 69.3509C109.548 69.1873 109.341 69.0619 109.116 68.9828C108.89 68.9038 108.65 68.8727 108.412 68.8918H105.792V72.3554H108.412C108.648 72.3751 108.886 72.3453 109.11 72.2681C109.334 72.1909 109.54 72.0679 109.714 71.9069C109.888 71.746 110.026 71.5506 110.121 71.3333C110.215 71.1159 110.263 70.8814 110.261 70.6445V70.6288Z" fill="#9E1C33"/>
<path d="M120.263 78.1108L119.461 76.0179H114.452L113.651 78.1108H111.471L115.762 67.207H118.151L122.437 78.1108H120.263ZM116.957 69.122L114.992 74.3227H118.921L116.957 69.122Z" fill="#9E1C33"/>
<path d="M129.855 78.1108L127.445 74.0454H125.533V78.1108H123.616V67.2227H128.415C130.573 67.2227 131.998 68.6144 131.998 70.6445C132.039 71.4081 131.793 72.1595 131.309 72.7517C130.824 73.3439 130.136 73.7343 129.379 73.8466L132.066 78.1265L129.855 78.1108ZM130.034 70.6079C130.036 70.3692 129.988 70.1326 129.893 69.9135C129.799 69.6943 129.659 69.4975 129.483 69.3358C129.307 69.174 129.099 69.0509 128.873 68.9744C128.646 68.8979 128.406 68.8698 128.168 68.8918H125.549V72.3554H128.168C128.407 72.3743 128.647 72.3434 128.873 72.2648C129.099 72.1861 129.307 72.0615 129.482 71.8987C129.657 71.7359 129.797 71.5385 129.892 71.319C129.987 71.0995 130.035 70.8627 130.034 70.6236V70.6079Z" fill="#9E1C33"/>
<path d="M133.916 78.1108V67.2227H141.392V68.9075H135.828V71.7223H141.282V73.4019H135.828V76.4417H141.392V78.1108H133.916Z" fill="#9E1C33"/>
<path d="M143.226 78.1108V67.2227H145.143V76.447H149.958V78.1108H143.226Z" fill="#9E1C33"/>
<path d="M48.9217 3.91903H36.0388C35.5385 3.91903 35.0588 3.72058 34.7051 3.36734C34.3514 3.0141 34.1527 2.53501 34.1527 2.03546C34.1527 1.5359 34.3514 1.05681 34.7051 0.703571C35.0588 0.350333 35.5385 0.151886 36.0388 0.151886L48.9217 0.151886C49.4219 0.151886 49.9017 0.350333 50.2554 0.703571C50.6091 1.05681 50.8078 1.5359 50.8078 2.03546C50.8078 2.53501 50.6091 3.0141 50.2554 3.36734C49.9017 3.72058 49.4219 3.91903 48.9217 3.91903Z" fill="white"/>
<path d="M15.47 3.91903H2.608C2.10778 3.91903 1.62805 3.72058 1.27434 3.36734C0.920635 3.0141 0.721924 2.53501 0.721924 2.03546C0.721924 1.5359 0.920635 1.05681 1.27434 0.703571C1.62805 0.350333 2.10778 0.151886 2.608 0.151886L15.47 0.151886C15.9702 0.151886 16.45 0.350333 16.8037 0.703571C17.1574 1.05681 17.3561 1.5359 17.3561 2.03546C17.3561 2.53501 17.1574 3.0141 16.8037 3.36734C16.45 3.72058 15.9702 3.91903 15.47 3.91903Z" fill="white"/>
<path d="M120.593 3.91903H89.8286C89.3284 3.91903 88.8487 3.72058 88.495 3.36734C88.1412 3.0141 87.9425 2.53501 87.9425 2.03546C87.9425 1.5359 88.1412 1.05681 88.495 0.703571C88.8487 0.350333 89.3284 0.151886 89.8286 0.151886L120.593 0.151886C121.093 0.151886 121.573 0.350333 121.926 0.703571C122.28 1.05681 122.479 1.5359 122.479 2.03546C122.479 2.53501 122.28 3.0141 121.926 3.36734C121.573 3.72058 121.093 3.91903 120.593 3.91903Z" fill="white"/>
<path d="M48.9217 10.1505H36.0388C35.5385 10.1505 35.0588 9.95208 34.7051 9.59885C34.3514 9.24561 34.1527 8.76652 34.1527 8.26696C34.1527 7.76741 34.3514 7.28831 34.7051 6.93508C35.0588 6.58184 35.5385 6.38339 36.0388 6.38339H48.9217C49.4219 6.38339 49.9017 6.58184 50.2554 6.93508C50.6091 7.28831 50.8078 7.76741 50.8078 8.26696C50.8078 8.76652 50.6091 9.24561 50.2554 9.59885C49.9017 9.95208 49.4219 10.1505 48.9217 10.1505Z" fill="white"/>
<path d="M15.47 10.1505H2.608C2.10778 10.1505 1.62805 9.95208 1.27434 9.59885C0.920635 9.24561 0.721924 8.76652 0.721924 8.26696C0.721924 7.76741 0.920635 7.28831 1.27434 6.93508C1.62805 6.58184 2.10778 6.38339 2.608 6.38339H15.47C15.9702 6.38339 16.45 6.58184 16.8037 6.93508C17.1574 7.28831 17.3561 7.76741 17.3561 8.26696C17.3561 8.76652 17.1574 9.24561 16.8037 9.59885C16.45 9.95208 15.9702 10.1505 15.47 10.1505Z" fill="white"/>
<path d="M126.864 10.1505H83.5888C83.0886 10.1505 82.6089 9.95208 82.2552 9.59885C81.9015 9.24561 81.7028 8.76652 81.7028 8.26696C81.7028 7.76741 81.9015 7.28831 82.2552 6.93508C82.6089 6.58184 83.0886 6.38339 83.5888 6.38339H126.864C127.364 6.38339 127.844 6.58184 128.197 6.93508C128.551 7.28831 128.75 7.76741 128.75 8.26696C128.75 8.76652 128.551 9.24561 128.197 9.59885C127.844 9.95208 127.364 10.1505 126.864 10.1505Z" fill="white"/>
<path d="M127.959 16.3715H115.097C114.849 16.3715 114.604 16.3228 114.375 16.2282C114.146 16.1335 113.938 15.9948 113.763 15.8199C113.588 15.645 113.449 15.4373 113.354 15.2088C113.26 14.9803 113.211 14.7353 113.211 14.488C113.211 14.2406 113.26 13.9957 113.354 13.7672C113.449 13.5386 113.588 13.331 113.763 13.1561C113.938 12.9812 114.146 12.8424 114.375 12.7478C114.604 12.6531 114.849 12.6044 115.097 12.6044H127.959C128.459 12.6044 128.939 12.8028 129.292 13.1561C129.646 13.5093 129.845 13.9884 129.845 14.488C129.845 14.9875 129.646 15.4666 129.292 15.8199C128.939 16.1731 128.459 16.3715 127.959 16.3715Z" fill="white"/>
<path d="M95.3558 16.3715H82.4938C81.9936 16.3715 81.5139 16.1731 81.1602 15.8199C80.8065 15.4666 80.6078 14.9875 80.6078 14.488C80.6078 13.9884 80.8065 13.5093 81.1602 13.1561C81.5139 12.8028 81.9936 12.6044 82.4938 12.6044H95.3558C95.8561 12.6044 96.3358 12.8028 96.6895 13.1561C97.0432 13.5093 97.2419 13.9884 97.2419 14.488C97.2419 14.9875 97.0432 15.4666 96.6895 15.8199C96.3358 16.1731 95.8561 16.3715 95.3558 16.3715Z" fill="white"/>
<path d="M15.47 16.3715H2.608C2.10778 16.3715 1.62805 16.1731 1.27434 15.8199C0.920635 15.4666 0.721924 14.9875 0.721924 14.488C0.721924 13.9884 0.920635 13.5093 1.27434 13.1561C1.62805 12.8028 2.10778 12.6044 2.608 12.6044H15.47C15.9702 12.6044 16.45 12.8028 16.8037 13.1561C17.1574 13.5093 17.3561 13.9884 17.3561 14.488C17.3561 14.9875 17.1574 15.4666 16.8037 15.8199C16.45 16.1731 15.9702 16.3715 15.47 16.3715Z" fill="white"/>
<path d="M48.9217 16.3715H36.0388C35.7911 16.3715 35.5458 16.3228 35.317 16.2282C35.0882 16.1335 34.8802 15.9948 34.7051 15.8199C34.53 15.645 34.391 15.4373 34.2962 15.2088C34.2015 14.9803 34.1527 14.7353 34.1527 14.488C34.1527 14.2406 34.2015 13.9957 34.2962 13.7672C34.391 13.5386 34.53 13.331 34.7051 13.1561C34.8802 12.9812 35.0882 12.8424 35.317 12.7478C35.5458 12.6531 35.7911 12.6044 36.0388 12.6044H48.9217C49.1694 12.6044 49.4147 12.6531 49.6435 12.7478C49.8723 12.8424 50.0802 12.9812 50.2554 13.1561C50.4305 13.331 50.5694 13.5386 50.6642 13.7672C50.759 13.9957 50.8078 14.2406 50.8078 14.488C50.8078 14.7353 50.759 14.9803 50.6642 15.2088C50.5694 15.4373 50.4305 15.645 50.2554 15.8199C50.0802 15.9948 49.8723 16.1335 49.6435 16.2282C49.4147 16.3228 49.1694 16.3715 48.9217 16.3715Z" fill="white"/>
<path d="M48.9217 22.6187H36.0388C35.5385 22.6187 35.0588 22.4202 34.7051 22.067C34.3514 21.7138 34.1527 21.2347 34.1527 20.7351C34.1527 20.2356 34.3514 19.7565 34.7051 19.4032C35.0588 19.05 35.5385 18.8515 36.0388 18.8515H48.9217C49.4219 18.8515 49.9017 19.05 50.2554 19.4032C50.6091 19.7565 50.8078 20.2356 50.8078 20.7351C50.8078 21.2347 50.6091 21.7138 50.2554 22.067C49.9017 22.4202 49.4219 22.6187 48.9217 22.6187Z" fill="white"/>
<path d="M95.3558 22.6187H82.4938C81.9936 22.6187 81.5139 22.4202 81.1602 22.067C80.8065 21.7138 80.6078 21.2347 80.6078 20.7351C80.6078 20.2356 80.8065 19.7565 81.1602 19.4032C81.5139 19.05 81.9936 18.8515 82.4938 18.8515H95.3558C95.8561 18.8515 96.3358 19.05 96.6895 19.4032C97.0432 19.7565 97.2419 20.2356 97.2419 20.7351C97.2419 21.2347 97.0432 21.7138 96.6895 22.067C96.3358 22.4202 95.8561 22.6187 95.3558 22.6187Z" fill="white"/>
<path d="M15.47 22.6187H2.608C2.10778 22.6187 1.62805 22.4202 1.27434 22.067C0.920635 21.7138 0.721924 21.2347 0.721924 20.7351C0.721924 20.2356 0.920635 19.7565 1.27434 19.4032C1.62805 19.05 2.10778 18.8515 2.608 18.8515H15.47C15.9702 18.8515 16.45 19.05 16.8037 19.4032C17.1574 19.7565 17.3561 20.2356 17.3561 20.7351C17.3561 21.2347 17.1574 21.7138 16.8037 22.067C16.45 22.4202 15.9702 22.6187 15.47 22.6187Z" fill="white"/>
<path d="M48.9217 28.8554H36.0388C35.555 28.83 35.0996 28.6201 34.7662 28.2692C34.4328 27.9183 34.2469 27.453 34.2469 26.9692C34.2469 26.4855 34.4328 26.0202 34.7662 25.6692C35.0996 25.3183 35.555 25.1085 36.0388 25.083H48.9217C49.4054 25.1085 49.8609 25.3183 50.1943 25.6692C50.5277 26.0202 50.7135 26.4855 50.7135 26.9692C50.7135 27.453 50.5277 27.9183 50.1943 28.2692C49.8609 28.6201 49.4054 28.83 48.9217 28.8554Z" fill="white"/>
<path d="M123.317 28.8554H83.1383C82.6546 28.83 82.1991 28.6201 81.8657 28.2692C81.5323 27.9183 81.3465 27.453 81.3465 26.9692C81.3465 26.4855 81.5323 26.0202 81.8657 25.6692C82.1991 25.3183 82.6546 25.1085 83.1383 25.083H123.317C123.801 25.1085 124.256 25.3183 124.59 25.6692C124.923 26.0202 125.109 26.4855 125.109 26.9692C125.109 27.453 124.923 27.9183 124.59 28.2692C124.256 28.6201 123.801 28.83 123.317 28.8554Z" fill="white"/>
<path d="M15.47 28.8554H2.608C2.12429 28.83 1.66879 28.6201 1.33542 28.2692C1.00204 27.9183 0.816193 27.453 0.816193 26.9692C0.816193 26.4855 1.00204 26.0202 1.33542 25.6692C1.66879 25.3183 2.12429 25.1085 2.608 25.083H15.47C15.9537 25.1085 16.4092 25.3183 16.7426 25.6692C17.076 26.0202 17.2618 26.4855 17.2618 26.9692C17.2618 27.453 17.076 27.9183 16.7426 28.2692C16.4092 28.6201 15.9537 28.83 15.47 28.8554Z" fill="white"/>
<path d="M48.9217 35.0869H36.0388C35.5385 35.0869 35.0588 34.8884 34.7051 34.5352C34.3514 34.182 34.1527 33.7029 34.1527 33.2033C34.1527 32.7038 34.3514 32.2247 34.7051 31.8714C35.0588 31.5182 35.5385 31.3197 36.0388 31.3197H48.9217C49.4219 31.3197 49.9017 31.5182 50.2554 31.8714C50.6091 32.2247 50.8078 32.7038 50.8078 33.2033C50.8078 33.7029 50.6091 34.182 50.2554 34.5352C49.9017 34.8884 49.4219 35.0869 48.9217 35.0869Z" fill="white"/>
<path d="M127.414 35.0869H87.5968C87.0966 35.0869 86.6168 34.8884 86.2631 34.5352C85.9094 34.182 85.7107 33.7029 85.7107 33.2033C85.7107 32.7038 85.9094 32.2247 86.2631 31.8714C86.6168 31.5182 87.0966 31.3197 87.5968 31.3197H127.414C127.914 31.3197 128.394 31.5182 128.748 31.8714C129.101 32.2247 129.3 32.7038 129.3 33.2033C129.3 33.7029 129.101 34.182 128.748 34.5352C128.394 34.8884 127.914 35.0869 127.414 35.0869Z" fill="white"/>
<path d="M15.47 35.0869H2.608C2.10778 35.0869 1.62805 34.8884 1.27434 34.5352C0.920635 34.182 0.721924 33.7029 0.721924 33.2033C0.721924 32.7038 0.920635 32.2247 1.27434 31.8714C1.62805 31.5182 2.10778 31.3197 2.608 31.3197H15.47C15.9702 31.3197 16.45 31.5182 16.8037 31.8714C17.1574 32.2247 17.3561 32.7038 17.3561 33.2033C17.3561 33.7029 17.1574 34.182 16.8037 34.5352C16.45 34.8884 15.9702 35.0869 15.47 35.0869Z" fill="white"/>
<path d="M48.9217 41.3236H36.0388C35.555 41.2982 35.0996 41.0883 34.7662 40.7374C34.4328 40.3865 34.2469 39.9212 34.2469 39.4374C34.2469 38.9537 34.4328 38.4884 34.7662 38.1374C35.0996 37.7865 35.555 37.5767 36.0388 37.5512H48.9217C49.4054 37.5767 49.8609 37.7865 50.1943 38.1374C50.5277 38.4884 50.7135 38.9537 50.7135 39.4374C50.7135 39.9212 50.5277 40.3865 50.1943 40.7374C49.8609 41.0883 49.4054 41.2982 48.9217 41.3236Z" fill="white"/>
<path d="M127.959 41.3236H115.097C114.613 41.2982 114.158 41.0883 113.824 40.7374C113.491 40.3865 113.305 39.9212 113.305 39.4374C113.305 38.9537 113.491 38.4884 113.824 38.1374C114.158 37.7865 114.613 37.5767 115.097 37.5512H127.959C128.443 37.5767 128.898 37.7865 129.231 38.1374C129.565 38.4884 129.751 38.9537 129.751 39.4374C129.751 39.9212 129.565 40.3865 129.231 40.7374C128.898 41.0883 128.443 41.2982 127.959 41.3236Z" fill="white"/>
<path d="M15.47 41.3236H2.608C2.12429 41.2982 1.66879 41.0883 1.33542 40.7374C1.00204 40.3865 0.816193 39.9212 0.816193 39.4374C0.816193 38.9537 1.00204 38.4884 1.33542 38.1374C1.66879 37.7865 2.12429 37.5767 2.608 37.5512H15.47C15.9537 37.5767 16.4092 37.7865 16.7426 38.1374C17.076 38.4884 17.2618 38.9537 17.2618 39.4374C17.2618 39.9212 17.076 40.3865 16.7426 40.7374C16.4092 41.0883 15.9537 41.2982 15.47 41.3236Z" fill="white"/>
<path d="M48.9217 47.5551H36.023C35.5228 47.5551 35.0431 47.3567 34.6894 47.0034C34.3356 46.6502 34.1369 46.1711 34.1369 45.6715C34.1369 45.172 34.3356 44.6929 34.6894 44.3396C35.0431 43.9864 35.5228 43.788 36.023 43.788H48.9217C49.4219 43.788 49.9016 43.9864 50.2553 44.3396C50.609 44.6929 50.8078 45.172 50.8078 45.6715C50.8078 46.1711 50.609 46.6502 50.2553 47.0034C49.9016 47.3567 49.4219 47.5551 48.9217 47.5551Z" fill="white"/>
<path d="M72.5396 47.5551H58.876C58.3758 47.5551 57.896 47.3567 57.5423 47.0034C57.1886 46.6502 56.9899 46.1711 56.9899 45.6715C56.9899 45.172 57.1886 44.6929 57.5423 44.3396C57.896 43.9864 58.3758 43.788 58.876 43.788H72.5605C73.0607 43.788 73.5405 43.9864 73.8942 44.3396C74.2479 44.6929 74.4466 45.172 74.4466 45.6715C74.4466 46.1711 74.2479 46.6502 73.8942 47.0034C73.5405 47.3567 73.0607 47.5551 72.5605 47.5551H72.5396Z" fill="white"/>
<path d="M127.959 47.5551H115.081C114.581 47.5551 114.101 47.3567 113.747 47.0034C113.394 46.6502 113.195 46.1711 113.195 45.6715C113.195 45.172 113.394 44.6929 113.747 44.3396C114.101 43.9864 114.581 43.788 115.081 43.788H127.959C128.459 43.788 128.939 43.9864 129.293 44.3396C129.646 44.6929 129.845 45.172 129.845 45.6715C129.845 46.1711 129.646 46.6502 129.293 47.0034C128.939 47.3567 128.459 47.5551 127.959 47.5551Z" fill="white"/>
<path d="M95.3716 47.5551H82.4938C81.9936 47.5551 81.5139 47.3567 81.1602 47.0034C80.8065 46.6502 80.6078 46.1711 80.6078 45.6715C80.6078 45.172 80.8065 44.6929 81.1602 44.3396C81.5139 43.9864 81.9936 43.788 82.4938 43.788H95.3716C95.8718 43.788 96.3515 43.9864 96.7052 44.3396C97.0589 44.6929 97.2576 45.172 97.2576 45.6715C97.2576 46.1711 97.0589 46.6502 96.7052 47.0034C96.3515 47.3567 95.8718 47.5551 95.3716 47.5551Z" fill="white"/>
<path d="M15.4857 47.5551H2.608C2.10778 47.5551 1.62805 47.3567 1.27434 47.0034C0.920635 46.6502 0.721924 46.1711 0.721924 45.6715C0.721924 45.172 0.920635 44.6929 1.27434 44.3396C1.62805 43.9864 2.10778 43.788 2.608 43.788H15.4857C15.9859 43.788 16.4657 43.9864 16.8194 44.3396C17.1731 44.6929 17.3718 45.172 17.3718 45.6715C17.3718 46.1711 17.1731 46.6502 16.8194 47.0034C16.4657 47.3567 15.9859 47.5551 15.4857 47.5551Z" fill="white"/>
<path d="M126.754 53.7918H83.6989C83.2151 53.7663 82.7596 53.5565 82.4263 53.2055C82.0929 52.8546 81.907 52.3893 81.907 51.9056C81.907 51.4218 82.0929 50.9565 82.4263 50.6056C82.7596 50.2547 83.2151 50.0448 83.6989 50.0194H126.754C127.238 50.0448 127.693 50.2547 128.026 50.6056C128.36 50.9565 128.546 51.4218 128.546 51.9056C128.546 52.3893 128.36 52.8546 128.026 53.2055C127.693 53.5565 127.238 53.7663 126.754 53.7918Z" fill="white"/>
<path d="M72.5396 53.7918H58.876C58.6196 53.8053 58.3631 53.7665 58.1222 53.6778C57.8813 53.5891 57.661 53.4523 57.4748 53.2759C57.2885 53.0994 57.1402 52.8869 57.0388 52.6513C56.9374 52.4157 56.8852 52.162 56.8852 51.9056C56.8852 51.6492 56.9374 51.3955 57.0388 51.1599C57.1402 50.9243 57.2885 50.7118 57.4748 50.5353C57.661 50.3588 57.8813 50.2221 58.1222 50.1334C58.3631 50.0447 58.6196 50.0059 58.876 50.0194H72.5605C72.8169 50.0059 73.0734 50.0447 73.3143 50.1334C73.5552 50.2221 73.7755 50.3588 73.9617 50.5353C74.148 50.7118 74.2963 50.9243 74.3977 51.1599C74.4991 51.3955 74.5514 51.6492 74.5514 51.9056C74.5514 52.162 74.4991 52.4157 74.3977 52.6513C74.2963 52.8869 74.148 53.0994 73.9617 53.2759C73.7755 53.4523 73.5552 53.5891 73.3143 53.6778C73.0734 53.7665 72.8169 53.8053 72.5605 53.7918H72.5396Z" fill="white"/>
<path d="M47.6957 53.7918H3.81299C3.32928 53.7663 2.87378 53.5565 2.5404 53.2055C2.20702 52.8546 2.02118 52.3893 2.02118 51.9056C2.02118 51.4218 2.20702 50.9565 2.5404 50.6056C2.87378 50.2547 3.32928 50.0448 3.81299 50.0194H47.6957C48.1795 50.0448 48.6349 50.2547 48.9683 50.6056C49.3017 50.9565 49.4875 51.4218 49.4875 51.9056C49.4875 52.3893 49.3017 52.8546 48.9683 53.2055C48.6349 53.5565 48.1795 53.7663 47.6957 53.7918Z" fill="white"/>
<path d="M119.98 60.0232H90.5149C90.2672 60.0232 90.022 59.9745 89.7932 59.8799C89.5643 59.7852 89.3564 59.6465 89.1813 59.4716C89.0061 59.2967 88.8672 59.089 88.7724 58.8605C88.6776 58.632 88.6288 58.387 88.6288 58.1397C88.6288 57.8923 88.6776 57.6474 88.7724 57.4189C88.8672 57.1903 89.0061 56.9827 89.1813 56.8078C89.3564 56.6329 89.5643 56.4941 89.7932 56.3995C90.022 56.3048 90.2672 56.2561 90.5149 56.2561H119.98C120.48 56.2561 120.96 56.4545 121.313 56.8078C121.667 57.161 121.866 57.6401 121.866 58.1397C121.866 58.6392 121.667 59.1183 121.313 59.4716C120.96 59.8248 120.48 60.0232 119.98 60.0232Z" fill="white"/>
<path d="M72.5396 60.0232H58.876C58.6283 60.0232 58.383 59.9745 58.1542 59.8799C57.9254 59.7852 57.7175 59.6465 57.5423 59.4716C57.3672 59.2967 57.2283 59.089 57.1335 58.8605C57.0387 58.632 56.9899 58.387 56.9899 58.1397C56.9899 57.8923 57.0387 57.6474 57.1335 57.4189C57.2283 57.1903 57.3672 56.9827 57.5423 56.8078C57.7175 56.6329 57.9254 56.4941 58.1542 56.3995C58.383 56.3048 58.6283 56.2561 58.876 56.2561H72.5605C72.8082 56.2561 73.0535 56.3048 73.2823 56.3995C73.5111 56.4941 73.719 56.6329 73.8942 56.8078C74.0693 56.9827 74.2083 57.1903 74.303 57.4189C74.3978 57.6474 74.4466 57.8923 74.4466 58.1397C74.4466 58.387 74.3978 58.632 74.303 58.8605C74.2083 59.089 74.0693 59.2967 73.8942 59.4716C73.719 59.6465 73.5111 59.7852 73.2823 59.8799C73.0535 59.9745 72.8082 60.0232 72.5605 60.0232H72.5396Z" fill="white"/>
<path d="M149.392 47.5551H135.702C135.202 47.5551 134.722 47.3567 134.369 47.0034C134.015 46.6502 133.816 46.1711 133.816 45.6715C133.816 45.172 134.015 44.6929 134.369 44.3396C134.722 43.9864 135.202 43.788 135.702 43.788H149.392C149.892 43.788 150.372 43.9864 150.726 44.3396C151.079 44.6929 151.278 45.172 151.278 45.6715C151.278 46.1711 151.079 46.6502 150.726 47.0034C150.372 47.3567 149.892 47.5551 149.392 47.5551Z" fill="white"/>
<path d="M149.392 53.7918H135.702C135.219 53.7663 134.763 53.5565 134.43 53.2055C134.096 52.8546 133.91 52.3893 133.91 51.9056C133.91 51.4218 134.096 50.9565 134.43 50.6056C134.763 50.2547 135.219 50.0448 135.702 50.0194H149.392C149.876 50.0448 150.331 50.2547 150.665 50.6056C150.998 50.9565 151.184 51.4218 151.184 51.9056C151.184 52.3893 150.998 52.8546 150.665 53.2055C150.331 53.5565 149.876 53.7663 149.392 53.7918Z" fill="white"/>
<path d="M149.392 60.0232H135.702C135.455 60.0232 135.209 59.9745 134.98 59.8799C134.752 59.7852 134.544 59.6465 134.369 59.4716C134.193 59.2967 134.055 59.089 133.96 58.8605C133.865 58.632 133.816 58.387 133.816 58.1397C133.816 57.8923 133.865 57.6474 133.96 57.4189C134.055 57.1903 134.193 56.9827 134.369 56.8078C134.544 56.6329 134.752 56.4941 134.98 56.3995C135.209 56.3048 135.455 56.2561 135.702 56.2561H149.392C149.64 56.2561 149.885 56.3048 150.114 56.3995C150.343 56.4941 150.551 56.6329 150.726 56.8078C150.901 56.9827 151.04 57.1903 151.135 57.4189C151.229 57.6474 151.278 57.8923 151.278 58.1397C151.278 58.387 151.229 58.632 151.135 58.8605C151.04 59.089 150.901 59.2967 150.726 59.4716C150.551 59.6465 150.343 59.7852 150.114 59.8799C149.885 59.9745 149.64 60.0232 149.392 60.0232Z" fill="white"/>
<path d="M40.8797 60.0232H10.5872C10.3395 60.0232 10.0942 59.9745 9.86539 59.8799C9.63656 59.7852 9.42864 59.6465 9.2535 59.4716C9.07836 59.2967 8.93943 59.089 8.84465 58.8605C8.74987 58.632 8.70108 58.387 8.70108 58.1397C8.70108 57.8923 8.74987 57.6474 8.84465 57.4189C8.93943 57.1903 9.07836 56.9827 9.2535 56.8078C9.42864 56.6329 9.63656 56.4941 9.86539 56.3995C10.0942 56.3048 10.3395 56.2561 10.5872 56.2561H40.8797C41.1274 56.2561 41.3726 56.3048 41.6014 56.3995C41.8303 56.4941 42.0382 56.6329 42.2133 56.8078C42.3885 56.9827 42.5274 57.1903 42.6222 57.4189C42.717 57.6474 42.7657 57.8923 42.7657 58.1397C42.7657 58.387 42.717 58.632 42.6222 58.8605C42.5274 59.089 42.3885 59.2967 42.2133 59.4716C42.0382 59.6465 41.8303 59.7852 41.6014 59.8799C41.3726 59.9745 41.1274 60.0232 40.8797 60.0232Z" fill="white"/>
</svg>
