<svg width="404" height="211" viewBox="0 0 404 211" fill="none" xmlns="http://www.w3.org/2000/svg">
<g clip-path="url(#clip0)">
<path d="M12.8977 209.688V184.971H4.03821V180.447H26.896V184.971H18.0365V209.688H12.8977Z" fill="#9E1C33"/>
<path d="M31.2345 209.688V180.447H51.2842V184.971H36.3733V192.531H51.0456V197.041H36.3733V205.205H51.2842V209.688H31.2345Z" fill="#9E1C33"/>
<path d="M76.1639 209.688L67.8941 198.278L59.7506 209.688H53.6149L64.5384 194.681L54.2748 180.447H60.4105L67.8941 191.168L75.4057 180.447H81.5835L71.2778 194.681L82.2995 209.688H76.1639Z" fill="#9E1C33"/>
<path d="M92.5211 209.688V184.971H83.6616V180.447H106.519V184.971H97.6599V209.688H92.5211Z" fill="#9E1C33"/>
<path d="M110.858 209.688V180.447H115.997V209.688H110.858Z" fill="#9E1C33"/>
<path d="M121.866 209.688V180.447H127.004V205.219H139.908V209.688H121.866Z" fill="#9E1C33"/>
<path d="M144.415 209.688V180.447H164.464V184.971H149.553V192.531H164.155V197.041H149.553V205.205H164.464V209.688H144.415Z" fill="#9E1C33"/>
<path d="M199.425 209.688C198.723 209.041 197.81 208.156 196.842 207.144C194.572 209.132 191.658 210.226 188.642 210.222C183.461 210.222 179.249 207.411 179.249 201.875C179.249 197.365 182.24 195.032 185.609 193.318C184.4 191.371 183.691 189.156 183.545 186.868C183.545 182.962 186.929 179.969 191.492 179.969C195.438 179.969 198.681 182.119 198.681 185.941C198.681 190.381 195.044 192.306 191.408 194.063C192.419 195.468 193.472 196.746 194.3 197.716C195.269 198.896 196.224 200.034 197.193 201.088C198.44 199.187 199.414 197.12 200.085 194.948L203.82 196.662C202.753 199.235 201.397 201.677 199.776 203.941C201.531 205.781 203.384 207.678 205.491 209.688H199.425ZM194.258 204.517C192.77 202.929 191.45 201.397 190.664 200.428C189.507 199.079 188.42 197.672 187.406 196.212C186.433 196.715 185.612 197.468 185.027 198.394C184.442 199.321 184.115 200.386 184.079 201.482C184.059 202.158 184.179 202.831 184.431 203.459C184.683 204.087 185.063 204.655 185.546 205.129C186.028 205.603 186.604 205.972 187.236 206.212C187.868 206.452 188.542 206.559 189.218 206.526C191.081 206.469 192.866 205.758 194.258 204.517ZM189.611 191.421C192.419 190.1 194.609 188.695 194.609 186.236C194.61 185.855 194.533 185.477 194.383 185.127C194.233 184.777 194.014 184.46 193.738 184.197C193.462 183.935 193.136 183.731 192.778 183.598C192.421 183.465 192.041 183.407 191.661 183.426C191.188 183.423 190.72 183.517 190.285 183.701C189.85 183.884 189.456 184.154 189.128 184.495C188.8 184.835 188.545 185.238 188.377 185.68C188.208 186.121 188.132 186.593 188.151 187.065C188.27 188.615 188.772 190.112 189.611 191.421Z" fill="#9E1C33"/>
<path d="M241.195 209.688L239.047 204.067H225.624L223.476 209.688H217.635L229.135 180.405H235.537L247.022 209.688H241.195ZM232.336 185.547L227.071 199.514H237.601L232.336 185.547Z" fill="#9E1C33"/>
<path d="M250.181 209.688V180.447H263.056C269.192 180.447 272.576 184.662 272.576 189.636C272.576 194.611 269.15 198.756 263.056 198.756H255.292V209.688H250.181ZM267.339 189.594C267.35 188.953 267.228 188.316 266.979 187.725C266.73 187.134 266.361 186.602 265.894 186.162C265.427 185.723 264.873 185.386 264.268 185.174C263.664 184.961 263.021 184.878 262.382 184.929H255.362V194.231H262.382C263.016 194.284 263.653 194.204 264.254 193.997C264.855 193.789 265.406 193.459 265.872 193.027C266.338 192.594 266.71 192.07 266.962 191.486C267.215 190.902 267.343 190.272 267.339 189.636V189.594Z" fill="#9E1C33"/>
<path d="M276.9 209.688V180.447H289.803C295.939 180.447 299.323 184.662 299.323 189.636C299.323 194.611 295.897 198.756 289.803 198.756H282.039V209.688H276.9ZM294.058 189.594C294.069 188.953 293.947 188.316 293.698 187.725C293.449 187.134 293.079 186.602 292.613 186.162C292.146 185.723 291.592 185.386 290.987 185.174C290.383 184.961 289.74 184.878 289.101 184.929H282.081V194.231H289.101C289.735 194.284 290.372 194.204 290.973 193.997C291.574 193.789 292.125 193.459 292.591 193.027C293.057 192.594 293.428 192.07 293.681 191.486C293.933 190.902 294.062 190.272 294.058 189.636V189.594Z" fill="#9E1C33"/>
<path d="M320.861 209.688L318.713 204.067H305.29L303.142 209.688H297.301L308.8 180.405H315.202L326.688 209.688H320.861ZM312.001 185.547L306.736 199.514H317.266L312.001 185.547Z" fill="#9E1C33"/>
<path d="M346.569 209.688L340.11 198.77H334.985V209.688H329.847V180.447H342.708C348.492 180.447 352.311 184.184 352.311 189.636C352.421 191.687 351.762 193.705 350.464 195.295C349.166 196.886 347.321 197.934 345.291 198.236L352.494 209.73L346.569 209.688ZM347.046 189.538C347.053 188.897 346.925 188.262 346.671 187.673C346.417 187.085 346.042 186.556 345.571 186.122C345.1 185.687 344.543 185.357 343.936 185.151C343.329 184.946 342.686 184.87 342.048 184.929H335.028V194.231H342.048C342.687 194.282 343.331 194.199 343.937 193.988C344.542 193.777 345.098 193.442 345.568 193.004C346.038 192.567 346.412 192.037 346.666 191.448C346.921 190.858 347.05 190.222 347.046 189.58V189.538Z" fill="#9E1C33"/>
<path d="M357.45 209.688V180.447H377.486V184.971H362.575V192.531H377.191V197.041H362.575V205.205H377.486V209.688H357.45Z" fill="#9E1C33"/>
<path d="M382.4 209.688V180.447H387.539V205.219H400.442V209.688H382.4Z" fill="#9E1C33"/>
<path d="M129.672 10.4397H95.1467C93.8061 10.4397 92.5205 9.90677 91.5726 8.95812C90.6246 8.00947 90.0921 6.72282 90.0921 5.38123C90.0921 4.03964 90.6246 2.753 91.5726 1.80435C92.5205 0.855699 93.8061 0.322754 95.1467 0.322754L129.672 0.322754C131.013 0.322754 132.298 0.855699 133.246 1.80435C134.194 2.753 134.727 4.03964 134.727 5.38123C134.727 6.72282 134.194 8.00947 133.246 8.95812C132.298 9.90677 131.013 10.4397 129.672 10.4397Z" fill="#072C60"/>
<path d="M40.0238 10.4397H5.55456C4.21401 10.4397 2.92836 9.90677 1.98045 8.95812C1.03253 8.00947 0.5 6.72282 0.5 5.38123C0.5 4.03964 1.03253 2.753 1.98045 1.80435C2.92836 0.855699 4.21401 0.322754 5.55456 0.322754L40.0238 0.322754C41.3644 0.322754 42.65 0.855699 43.598 1.80435C44.5459 2.753 45.0784 4.03964 45.0784 5.38123C45.0784 6.72282 44.5459 8.00947 43.598 8.95812C42.65 9.90677 41.3644 10.4397 40.0238 10.4397Z" fill="#072C60"/>
<path d="M321.745 10.4397H239.3C237.959 10.4397 236.674 9.90677 235.726 8.95812C234.778 8.00947 234.245 6.72282 234.245 5.38123C234.245 4.03964 234.778 2.753 235.726 1.80435C236.674 0.855699 237.959 0.322754 239.3 0.322754L321.745 0.322754C323.086 0.322754 324.372 0.855699 325.319 1.80435C326.267 2.753 326.8 4.03964 326.8 5.38123C326.8 6.72282 326.267 8.00947 325.319 8.95812C324.372 9.90677 323.086 10.4397 321.745 10.4397Z" fill="#072C60"/>
<path d="M129.672 27.1749H95.1467C93.8061 27.1749 92.5205 26.6419 91.5726 25.6933C90.6246 24.7446 90.0921 23.458 90.0921 22.1164C90.0921 20.7748 90.6246 19.4882 91.5726 18.5395C92.5205 17.5909 93.8061 17.0579 95.1467 17.0579H129.672C131.013 17.0579 132.298 17.5909 133.246 18.5395C134.194 19.4882 134.727 20.7748 134.727 22.1164C134.727 23.458 134.194 24.7446 133.246 25.6933C132.298 26.6419 131.013 27.1749 129.672 27.1749Z" fill="#072C60"/>
<path d="M40.0238 27.1749H5.55456C4.21401 27.1749 2.92836 26.6419 1.98045 25.6933C1.03253 24.7446 0.5 23.458 0.5 22.1164C0.5 20.7748 1.03253 19.4882 1.98045 18.5395C2.92836 17.5909 4.21401 17.0579 5.55456 17.0579H40.0238C41.3644 17.0579 42.65 17.5909 43.598 18.5395C44.5459 19.4882 45.0784 20.7748 45.0784 22.1164C45.0784 23.458 44.5459 24.7446 43.598 25.6933C42.65 26.6419 41.3644 27.1749 40.0238 27.1749Z" fill="#072C60"/>
<path d="M338.552 27.1749H222.578C221.237 27.1749 219.951 26.6419 219.004 25.6933C218.056 24.7446 217.523 23.458 217.523 22.1164C217.523 20.7748 218.056 19.4882 219.004 18.5395C219.951 17.5909 221.237 17.0579 222.578 17.0579H338.552C339.892 17.0579 341.178 17.5909 342.126 18.5395C343.074 19.4882 343.606 20.7748 343.606 22.1164C343.606 23.458 343.074 24.7446 342.126 25.6933C341.178 26.6419 339.892 27.1749 338.552 27.1749Z" fill="#072C60"/>
<path d="M341.486 43.8819H307.017C306.353 43.8819 305.696 43.751 305.083 43.4968C304.469 43.2426 303.912 42.87 303.443 42.4003C302.973 41.9305 302.601 41.3729 302.347 40.7592C302.093 40.1454 301.962 39.4877 301.962 38.8234C301.962 38.1591 302.093 37.5013 302.347 36.8876C302.601 36.2739 302.973 35.7162 303.443 35.2465C303.912 34.7768 304.469 34.4042 305.083 34.1499C305.696 33.8957 306.353 33.7649 307.017 33.7649H341.486C342.827 33.7649 344.112 34.2978 345.06 35.2465C346.008 36.1951 346.541 37.4818 346.541 38.8234C346.541 40.165 346.008 41.4516 345.06 42.4003C344.112 43.3489 342.827 43.8819 341.486 43.8819Z" fill="#072C60"/>
<path d="M254.112 43.8819H219.643C218.303 43.8819 217.017 43.3489 216.069 42.4003C215.121 41.4516 214.589 40.165 214.589 38.8234C214.589 37.4818 215.121 36.1951 216.069 35.2465C217.017 34.2978 218.303 33.7649 219.643 33.7649H254.112C255.453 33.7649 256.739 34.2978 257.687 35.2465C258.634 36.1951 259.167 37.4818 259.167 38.8234C259.167 40.165 258.634 41.4516 257.687 42.4003C256.739 43.3489 255.453 43.8819 254.112 43.8819Z" fill="#072C60"/>
<path d="M40.0238 43.8819H5.55456C4.21401 43.8819 2.92836 43.3489 1.98045 42.4003C1.03253 41.4516 0.5 40.165 0.5 38.8234C0.5 37.4818 1.03253 36.1951 1.98045 35.2465C2.92836 34.2978 4.21401 33.7649 5.55456 33.7649H40.0238C41.3644 33.7649 42.65 34.2978 43.598 35.2465C44.5459 36.1951 45.0784 37.4818 45.0784 38.8234C45.0784 40.165 44.5459 41.4516 43.598 42.4003C42.65 43.3489 41.3644 43.8819 40.0238 43.8819Z" fill="#072C60"/>
<path d="M129.672 43.8819H95.1467C94.4829 43.8819 93.8256 43.751 93.2124 43.4968C92.5991 43.2426 92.0419 42.87 91.5726 42.4003C91.1032 41.9305 90.7309 41.3729 90.4769 40.7592C90.2228 40.1454 90.0921 39.4877 90.0921 38.8234C90.0921 38.1591 90.2228 37.5013 90.4769 36.8876C90.7309 36.2739 91.1032 35.7162 91.5726 35.2465C92.0419 34.7768 92.5991 34.4042 93.2124 34.1499C93.8256 33.8957 94.4829 33.7649 95.1467 33.7649H129.672C130.336 33.7649 130.993 33.8957 131.606 34.1499C132.22 34.4042 132.777 34.7768 133.246 35.2465C133.716 35.7162 134.088 36.2739 134.342 36.8876C134.596 37.5013 134.727 38.1591 134.727 38.8234C134.727 39.4877 134.596 40.1454 134.342 40.7592C134.088 41.3729 133.716 41.9305 133.246 42.4003C132.777 42.87 132.22 43.2426 131.606 43.4968C130.993 43.751 130.336 43.8819 129.672 43.8819Z" fill="#072C60"/>
<path d="M129.672 60.6591H95.1467C93.8061 60.6591 92.5205 60.1262 91.5726 59.1775C90.6246 58.2289 90.0921 56.9422 90.0921 55.6007C90.0921 54.2591 90.6246 52.9724 91.5726 52.0238C92.5205 51.0751 93.8061 50.5422 95.1467 50.5422H129.672C131.013 50.5422 132.298 51.0751 133.246 52.0238C134.194 52.9724 134.727 54.2591 134.727 55.6007C134.727 56.9422 134.194 58.2289 133.246 59.1775C132.298 60.1262 131.013 60.6591 129.672 60.6591Z" fill="#072C60"/>
<path d="M254.112 60.6591H219.643C218.303 60.6591 217.017 60.1262 216.069 59.1775C215.121 58.2289 214.589 56.9422 214.589 55.6007C214.589 54.2591 215.121 52.9724 216.069 52.0238C217.017 51.0751 218.303 50.5422 219.643 50.5422H254.112C255.453 50.5422 256.739 51.0751 257.687 52.0238C258.634 52.9724 259.167 54.2591 259.167 55.6007C259.167 56.9422 258.634 58.2289 257.687 59.1775C256.739 60.1262 255.453 60.6591 254.112 60.6591Z" fill="#072C60"/>
<path d="M40.0238 60.6591H5.55456C4.21401 60.6591 2.92836 60.1262 1.98045 59.1775C1.03253 58.2289 0.5 56.9422 0.5 55.6007C0.5 54.2591 1.03253 52.9724 1.98045 52.0238C2.92836 51.0751 4.21401 50.5422 5.55456 50.5422H40.0238C41.3644 50.5422 42.65 51.0751 43.598 52.0238C44.5459 52.9724 45.0784 54.2591 45.0784 55.6007C45.0784 56.9422 44.5459 58.2289 43.598 59.1775C42.65 60.1262 41.3644 60.6591 40.0238 60.6591Z" fill="#072C60"/>
<path d="M129.672 77.4083H95.1467C93.8504 77.34 92.6297 76.7765 91.7363 75.834C90.8428 74.8916 90.3448 73.642 90.3448 72.3428C90.3448 71.0437 90.8428 69.7941 91.7363 68.8517C92.6297 67.9092 93.8504 67.3457 95.1467 67.2773H129.672C130.968 67.3457 132.189 67.9092 133.083 68.8517C133.976 69.7941 134.474 71.0437 134.474 72.3428C134.474 73.642 133.976 74.8916 133.083 75.834C132.189 76.7765 130.968 77.34 129.672 77.4083Z" fill="#072C60"/>
<path d="M329.046 77.4083H221.37C220.074 77.34 218.853 76.7765 217.96 75.834C217.066 74.8916 216.568 73.642 216.568 72.3428C216.568 71.0437 217.066 69.7941 217.96 68.8517C218.853 67.9092 220.074 67.3457 221.37 67.2773H329.046C330.343 67.3457 331.563 67.9092 332.457 68.8517C333.35 69.7941 333.848 71.0437 333.848 72.3428C333.848 73.642 333.35 74.8916 332.457 75.834C331.563 76.7765 330.343 77.34 329.046 77.4083Z" fill="#072C60"/>
<path d="M40.0239 77.4083H5.55461C4.2583 77.34 3.0376 76.7765 2.14417 75.834C1.25074 74.8916 0.752686 73.642 0.752686 72.3428C0.752686 71.0437 1.25074 69.7941 2.14417 68.8517C3.0376 67.9092 4.2583 67.3457 5.55461 67.2773H40.0239C41.3202 67.3457 42.5409 67.9092 43.4343 68.8517C44.3278 69.7941 44.8258 71.0437 44.8258 72.3428C44.8258 73.642 44.3278 74.8916 43.4343 75.834C42.5409 76.7765 41.3202 77.34 40.0239 77.4083Z" fill="#072C60"/>
<path d="M129.672 94.1435H95.1467C93.8061 94.1435 92.5205 93.6106 91.5726 92.6619C90.6246 91.7133 90.0921 90.4266 90.0921 89.085C90.0921 87.7434 90.6246 86.4568 91.5726 85.5081C92.5205 84.5595 93.8061 84.0266 95.1467 84.0266H129.672C131.013 84.0266 132.298 84.5595 133.246 85.5081C134.194 86.4568 134.727 87.7434 134.727 89.085C134.727 90.4266 134.194 91.7133 133.246 92.6619C132.298 93.6106 131.013 94.1435 129.672 94.1435Z" fill="#072C60"/>
<path d="M340.026 94.1435H233.319C231.978 94.1435 230.692 93.6106 229.744 92.6619C228.797 91.7133 228.264 90.4266 228.264 89.085C228.264 87.7434 228.797 86.4568 229.744 85.5081C230.692 84.5595 231.978 84.0266 233.319 84.0266H340.026C341.367 84.0266 342.652 84.5595 343.6 85.5081C344.548 86.4568 345.081 87.7434 345.081 89.085C345.081 90.4266 344.548 91.7133 343.6 92.6619C342.652 93.6106 341.367 94.1435 340.026 94.1435Z" fill="#072C60"/>
<path d="M40.0238 94.1435H5.55456C4.21401 94.1435 2.92836 93.6106 1.98045 92.6619C1.03253 91.7133 0.5 90.4266 0.5 89.085C0.5 87.7434 1.03253 86.4568 1.98045 85.5081C2.92836 84.5595 4.21401 84.0266 5.55456 84.0266H40.0238C41.3644 84.0266 42.65 84.5595 43.598 85.5081C44.5459 86.4568 45.0784 87.7434 45.0784 89.085C45.0784 90.4266 44.5459 91.7133 43.598 92.6619C42.65 93.6106 41.3644 94.1435 40.0238 94.1435Z" fill="#072C60"/>
<path d="M129.672 110.893H95.1467C93.8504 110.824 92.6297 110.261 91.7363 109.318C90.8428 108.376 90.3448 107.126 90.3448 105.827C90.3448 104.528 90.8428 103.279 91.7363 102.336C92.6297 101.394 93.8504 100.83 95.1467 100.762H129.672C130.968 100.83 132.189 101.394 133.083 102.336C133.976 103.279 134.474 104.528 134.474 105.827C134.474 107.126 133.976 108.376 133.083 109.318C132.189 110.261 130.968 110.824 129.672 110.893Z" fill="#072C60"/>
<path d="M341.486 110.893H307.017C305.721 110.824 304.5 110.261 303.606 109.318C302.713 108.376 302.215 107.126 302.215 105.827C302.215 104.528 302.713 103.279 303.606 102.336C304.5 101.394 305.721 100.83 307.017 100.762H341.486C342.782 100.83 344.003 101.394 344.897 102.336C345.79 103.279 346.288 104.528 346.288 105.827C346.288 107.126 345.79 108.376 344.897 109.318C344.003 110.261 342.782 110.824 341.486 110.893Z" fill="#072C60"/>
<path d="M40.0239 110.893H5.55461C4.2583 110.824 3.0376 110.261 2.14417 109.318C1.25074 108.376 0.752686 107.126 0.752686 105.827C0.752686 104.528 1.25074 103.279 2.14417 102.336C3.0376 101.394 4.2583 100.83 5.55461 100.762H40.0239C41.3202 100.83 42.5409 101.394 43.4343 102.336C44.3278 103.279 44.8258 104.528 44.8258 105.827C44.8258 107.126 44.3278 108.376 43.4343 109.318C42.5409 110.261 41.3202 110.824 40.0239 110.893Z" fill="#072C60"/>
<path d="M129.672 127.628H95.1045C93.7639 127.628 92.4783 127.095 91.5304 126.146C90.5825 125.198 90.0499 123.911 90.0499 122.569C90.0499 121.228 90.5825 119.941 91.5304 118.993C92.4783 118.044 93.7639 117.511 95.1045 117.511H129.672C131.013 117.511 132.298 118.044 133.246 118.993C134.194 119.941 134.727 121.228 134.727 122.569C134.727 123.911 134.194 125.198 133.246 126.146C132.298 127.095 131.013 127.628 129.672 127.628Z" fill="#072C60"/>
<path d="M192.966 127.628H156.349C155.008 127.628 153.723 127.095 152.775 126.146C151.827 125.198 151.294 123.911 151.294 122.569C151.294 121.228 151.827 119.941 152.775 118.993C153.723 118.044 155.008 117.511 156.349 117.511H193.023C194.363 117.511 195.649 118.044 196.597 118.993C197.545 119.941 198.077 121.228 198.077 122.569C198.077 123.911 197.545 125.198 196.597 126.146C195.649 127.095 194.363 127.628 193.023 127.628H192.966Z" fill="#072C60"/>
<path d="M341.486 127.628H306.975C305.634 127.628 304.349 127.095 303.401 126.146C302.453 125.198 301.92 123.911 301.92 122.569C301.92 121.228 302.453 119.941 303.401 118.993C304.349 118.044 305.634 117.511 306.975 117.511H341.486C342.827 117.511 344.112 118.044 345.06 118.993C346.008 119.941 346.541 121.228 346.541 122.569C346.541 123.911 346.008 125.198 345.06 126.146C344.112 127.095 342.827 127.628 341.486 127.628Z" fill="#072C60"/>
<path d="M254.155 127.628H219.643C218.303 127.628 217.017 127.095 216.069 126.146C215.121 125.198 214.589 123.911 214.589 122.569C214.589 121.228 215.121 119.941 216.069 118.993C217.017 118.044 218.303 117.511 219.643 117.511H254.155C255.495 117.511 256.781 118.044 257.729 118.993C258.677 119.941 259.209 121.228 259.209 122.569C259.209 123.911 258.677 125.198 257.729 126.146C256.781 127.095 255.495 127.628 254.155 127.628Z" fill="#072C60"/>
<path d="M40.066 127.628H5.55456C4.21401 127.628 2.92836 127.095 1.98045 126.146C1.03253 125.198 0.5 123.911 0.5 122.569C0.5 121.228 1.03253 119.941 1.98045 118.993C2.92836 118.044 4.21401 117.511 5.55456 117.511H40.066C41.4065 117.511 42.6922 118.044 43.6401 118.993C44.588 119.941 45.1205 121.228 45.1205 122.569C45.1205 123.911 44.588 125.198 43.6401 126.146C42.6922 127.095 41.4065 127.628 40.066 127.628Z" fill="#072C60"/>
<path d="M338.257 144.377H222.872C221.576 144.309 220.355 143.745 219.462 142.803C218.569 141.86 218.071 140.611 218.071 139.311C218.071 138.012 218.569 136.763 219.462 135.82C220.355 134.878 221.576 134.314 222.872 134.246H338.257C339.553 134.314 340.774 134.878 341.667 135.82C342.561 136.763 343.059 138.012 343.059 139.311C343.059 140.611 342.561 141.86 341.667 142.803C340.774 143.745 339.553 144.309 338.257 144.377Z" fill="#072C60"/>
<path d="M192.966 144.377H156.349C155.662 144.413 154.974 144.309 154.329 144.071C153.683 143.833 153.093 143.465 152.594 142.991C152.095 142.518 151.697 141.947 151.425 141.314C151.154 140.681 151.014 140 151.014 139.311C151.014 138.623 151.154 137.941 151.425 137.309C151.697 136.676 152.095 136.105 152.594 135.632C153.093 135.158 153.683 134.79 154.329 134.552C154.974 134.314 155.662 134.21 156.349 134.246H193.023C193.71 134.21 194.397 134.314 195.043 134.552C195.688 134.79 196.278 135.158 196.778 135.632C197.277 136.105 197.674 136.676 197.946 137.309C198.218 137.941 198.358 138.623 198.358 139.311C198.358 140 198.218 140.681 197.946 141.314C197.674 141.947 197.277 142.518 196.778 142.991C196.278 143.465 195.688 143.833 195.043 144.071C194.397 144.309 193.71 144.413 193.023 144.377H192.966Z" fill="#072C60"/>
<path d="M126.387 144.377H8.78386C7.48755 144.309 6.26685 143.745 5.37342 142.803C4.47999 141.86 3.98193 140.611 3.98193 139.311C3.98193 138.012 4.47999 136.763 5.37342 135.82C6.26685 134.878 7.48755 134.314 8.78386 134.246H126.387C127.683 134.314 128.904 134.878 129.797 135.82C130.69 136.763 131.189 138.012 131.189 139.311C131.189 140.611 130.69 141.86 129.797 142.803C128.904 143.745 127.683 144.309 126.387 144.377Z" fill="#072C60"/>
<path d="M320.103 161.112H241.139C240.475 161.112 239.818 160.981 239.205 160.727C238.592 160.473 238.034 160.1 237.565 159.63C237.096 159.161 236.723 158.603 236.469 157.989C236.215 157.376 236.084 156.718 236.084 156.054C236.084 155.389 236.215 154.732 236.469 154.118C236.723 153.504 237.096 152.946 237.565 152.477C238.034 152.007 238.592 151.634 239.205 151.38C239.818 151.126 240.475 150.995 241.139 150.995H320.103C321.443 150.995 322.729 151.528 323.677 152.477C324.625 153.425 325.157 154.712 325.157 156.054C325.157 157.395 324.625 158.682 323.677 159.63C322.729 160.579 321.443 161.112 320.103 161.112Z" fill="#072C60"/>
<path d="M192.966 161.112H156.349C155.685 161.112 155.028 160.981 154.415 160.727C153.801 160.473 153.244 160.1 152.775 159.63C152.305 159.161 151.933 158.603 151.679 157.989C151.425 157.376 151.294 156.718 151.294 156.054C151.294 155.389 151.425 154.732 151.679 154.118C151.933 153.504 152.305 152.946 152.775 152.477C153.244 152.007 153.801 151.634 154.415 151.38C155.028 151.126 155.685 150.995 156.349 150.995H193.023C193.686 150.995 194.344 151.126 194.957 151.38C195.57 151.634 196.127 152.007 196.597 152.477C197.066 152.946 197.438 153.504 197.692 154.118C197.946 154.732 198.077 155.389 198.077 156.054C198.077 156.718 197.946 157.376 197.692 157.989C197.438 158.603 197.066 159.161 196.597 159.63C196.127 160.1 195.57 160.473 194.957 160.727C194.344 160.981 193.686 161.112 193.023 161.112H192.966Z" fill="#072C60"/>
<path d="M398.926 127.628H362.238C360.898 127.628 359.612 127.095 358.664 126.146C357.716 125.198 357.183 123.911 357.183 122.569C357.183 121.228 357.716 119.941 358.664 118.993C359.612 118.044 360.898 117.511 362.238 117.511H398.926C400.266 117.511 401.552 118.044 402.5 118.993C403.448 119.941 403.98 121.228 403.98 122.569C403.98 123.911 403.448 125.198 402.5 126.146C401.552 127.095 400.266 127.628 398.926 127.628Z" fill="#072C60"/>
<path d="M398.926 144.377H362.238C360.942 144.309 359.721 143.745 358.828 142.803C357.934 141.86 357.436 140.611 357.436 139.311C357.436 138.012 357.934 136.763 358.828 135.82C359.721 134.878 360.942 134.314 362.238 134.246H398.926C400.222 134.314 401.443 134.878 402.336 135.82C403.23 136.763 403.728 138.012 403.728 139.311C403.728 140.611 403.23 141.86 402.336 142.803C401.443 143.745 400.222 144.309 398.926 144.377Z" fill="#072C60"/>
<path d="M398.926 161.112H362.238C361.574 161.112 360.917 160.981 360.304 160.727C359.69 160.473 359.133 160.1 358.664 159.63C358.195 159.161 357.822 158.603 357.568 157.989C357.314 157.376 357.183 156.718 357.183 156.054C357.183 155.389 357.314 154.732 357.568 154.118C357.822 153.504 358.195 152.946 358.664 152.477C359.133 152.007 359.69 151.634 360.304 151.38C360.917 151.126 361.574 150.995 362.238 150.995H398.926C399.589 150.995 400.247 151.126 400.86 151.38C401.473 151.634 402.03 152.007 402.5 152.477C402.969 152.946 403.341 153.504 403.595 154.118C403.85 154.732 403.98 155.389 403.98 156.054C403.98 156.718 403.85 157.376 403.595 157.989C403.341 158.603 402.969 159.161 402.5 159.63C402.03 160.1 401.473 160.473 400.86 160.727C400.247 160.981 399.589 161.112 398.926 161.112Z" fill="#072C60"/>
<path d="M108.12 161.112H26.9382C26.2744 161.112 25.6171 160.981 25.0039 160.727C24.3906 160.473 23.8334 160.1 23.3641 159.63C22.8947 159.161 22.5224 158.603 22.2684 157.989C22.0143 157.376 21.8836 156.718 21.8836 156.054C21.8836 155.389 22.0143 154.732 22.2684 154.118C22.5224 153.504 22.8947 152.946 23.3641 152.477C23.8334 152.007 24.3906 151.634 25.0039 151.38C25.6171 151.126 26.2744 150.995 26.9382 150.995H108.12C108.784 150.995 109.441 151.126 110.054 151.38C110.668 151.634 111.225 152.007 111.694 152.477C112.163 152.946 112.536 153.504 112.79 154.118C113.044 154.732 113.175 155.389 113.175 156.054C113.175 156.718 113.044 157.376 112.79 157.989C112.536 158.603 112.163 159.161 111.694 159.63C111.225 160.1 110.668 160.473 110.054 160.727C109.441 160.981 108.784 161.112 108.12 161.112Z" fill="#072C60"/>
</g>
<defs>
<clipPath id="clip0">
<rect width="403.48" height="209.941" fill="white" transform="translate(0.5 0.322754)"/>
</clipPath>
</defs>
</svg>
