<svg width="485" height="148" viewBox="0 0 485 148" fill="none" xmlns="http://www.w3.org/2000/svg">
<g clip-path="url(#clip0)">
<path d="M54.5332 47.7513C54.5332 53.9246 51.2107 58.4956 44.5657 61.4643C41.3535 62.9121 36.7437 63.8189 30.7362 64.1849C29.0934 64.1849 24.2261 64.2825 16.1589 64.2825H3.0773C1.85129 64.2825 1.25054 64.0019 1.25054 63.4529C1.25054 62.9039 2.34169 62.6233 4.53626 62.6233C7.08638 62.6233 8.59438 62.3915 9.06026 61.9401C9.52615 61.4887 9.80814 60.1223 9.80814 57.8287V8.90606C9.80814 6.24643 9.66101 4.70921 9.37903 4.28221C8.88862 3.5624 7.07412 3.17199 3.96003 3.06219C1.98615 3.11099 1.04211 2.78159 1.04211 2.12278C1.04211 1.46397 1.92485 1.21997 3.67805 1.21997H4.90407C5.61217 1.34862 6.32985 1.41799 7.0496 1.42737H27.8919C35.5913 1.49244 41.3127 2.58232 45.0561 4.69701C49.478 7.13704 51.6889 10.7402 51.6889 15.5063C51.7158 17.4966 51.2461 19.4624 50.3217 21.2276C49.3974 22.9928 48.0473 24.5021 46.3925 25.6203C42.7635 28.2718 37.6796 29.931 31.1408 30.5979V31.1469C37.6796 31.4967 42.7594 32.6435 46.3802 34.5874C51.8074 37.4991 54.5251 41.8871 54.5332 47.7513ZM40.0172 16.4824C40.0172 10.6751 38.4479 6.79951 35.3093 4.85561C33.6746 3.8308 30.5687 3.3184 25.9916 3.3184C24.7655 3.3184 22.8897 3.4038 20.3274 3.5868V29.9147H21.2837L27.1685 29.7317C28.9137 29.7818 30.6513 29.4838 32.279 28.8552C33.9066 28.2267 35.3913 27.2802 36.6456 26.0717C37.8136 24.7748 38.7127 23.2612 39.2913 21.6177C39.8698 19.9742 40.1165 18.2332 40.0172 16.4946V16.4824ZM43.3397 46.7875C43.3397 39.1746 39.6616 34.4613 32.3055 32.6476C28.3486 31.957 24.3297 31.683 20.3151 31.8301V58.8413C20.3151 60.5859 20.5235 61.5863 20.9526 61.8303C21.676 62.2573 23.6989 62.4647 27.0092 62.4647C31.9786 62.4647 35.9386 61.1349 38.8893 58.4753C41.8399 55.8156 43.3193 51.9157 43.3274 46.7753" fill="#201600"/>
<path d="M129.958 63.5994C129.958 64.185 129.431 64.49 128.352 64.49C127.703 64.4971 127.057 64.4233 126.427 64.2704L112.794 64.0752L99.197 64.2704C98.6749 64.4192 98.1341 64.4931 97.5909 64.49C96.1565 64.49 95.4454 64.1606 95.4454 63.5018C95.4454 62.843 96.4017 62.416 98.3388 62.416C104.616 62.416 107.767 61.8304 107.767 60.8299C107.714 60.5921 107.64 60.3594 107.546 60.1345L106.663 57.7555L106.112 56.5355C105.499 54.6323 103.946 50.4273 101.453 43.9205H78.5509C74.2762 53.6807 72.1347 59.2765 72.1266 60.7079C72.0956 61.0823 72.2129 61.4538 72.4534 61.7433C72.6939 62.0328 73.0386 62.2172 73.4139 62.2574C73.6346 62.2574 75.4123 62.4404 78.7716 62.6234C80.8436 62.6234 81.8734 62.9894 81.8734 63.5384C81.8734 64.0874 80.9416 64.4534 79.0903 64.4534C75.821 64.4534 71.9999 64.3436 67.6271 64.124C66.5605 64.063 65.4448 64.0386 64.3046 64.0386C63.1955 64.034 62.088 64.1238 60.9943 64.307C60.5332 64.3931 60.0658 64.442 59.5967 64.4534C58.6036 64.4534 58.1009 64.1728 58.1009 63.6238C58.1009 63.0748 59.2289 62.782 61.4725 62.721C63.1498 62.7737 64.8199 62.4788 66.3766 61.8548C67.4647 61.1822 68.2739 60.1431 68.6569 58.9267C77.8766 36.6004 85.3676 18.6703 91.1298 5.13626C91.3486 4.28202 91.6827 3.46122 92.1229 2.69623L92.5888 1.08581C92.7972 0.366004 93.0915 0 93.447 0C93.8026 0 93.8393 0.207403 93.9865 0.634408C94.9101 2.9931 97.0147 7.9179 100.3 15.4088C102.908 21.2649 109.299 35.9823 119.475 59.5611C119.853 60.6317 120.642 61.5092 121.67 62.0012C123.471 62.4611 125.328 62.6665 127.187 62.6112C129.051 62.6722 129.97 63.0016 129.97 63.5872L129.958 63.5994ZM100.803 41.8831L95.0776 28.4629L89.9651 16.0188C87.0145 22.6557 83.4509 31.2771 79.2743 41.8831H100.803Z" fill="#201600"/>
<path d="M209.44 32.8062C209.44 43.4854 205.047 51.7937 196.261 57.7311C189.828 62.0987 181.218 64.2825 170.429 64.2825H141.384C140.023 64.2825 139.349 63.9897 139.349 63.4041C139.349 62.8185 140.489 62.6233 142.782 62.6233C145.712 62.6233 147.539 62.1597 148.25 61.2569C148.648 60.1519 148.795 58.9726 148.679 57.8043V8.80848C148.679 5.84384 148.409 4.11142 147.882 3.63561C147.355 3.15981 145.504 2.90361 142.353 2.90361C140.71 2.90361 139.901 2.5864 139.901 1.93979C139.901 1.29319 140.502 1.24438 141.728 1.24438H160.363C173.212 1.24438 182.321 2.00079 187.691 3.51361C194.02 5.22529 199.576 9.02862 203.445 14.2985C207.436 19.6433 209.543 26.1486 209.44 32.8062V32.8062ZM197.389 32.5012C197.389 22.4401 195.072 15.059 190.437 10.3579C185.803 5.65677 178.569 3.31028 168.737 3.31841C163.963 3.31841 161.078 3.72508 160.081 4.53842C159.652 4.96543 159.443 6.41725 159.443 8.90608V57.3407C159.397 58.3763 159.45 59.414 159.603 60.4395C159.683 60.6443 159.805 60.8303 159.961 60.9858C160.117 61.1412 160.304 61.2626 160.51 61.3423C162.227 62.0743 165.819 62.4403 171.311 62.4403C179.003 62.4403 185.202 60.1345 189.91 55.5228C194.904 50.6428 197.397 42.977 197.389 32.5256" fill="#201600"/>
<path d="M288.666 45.2382C288.666 45.7628 288.347 46.0312 287.697 46.0312H285.245C281.927 45.9092 280.051 46.3891 279.618 47.4708C279.323 48.1784 279.176 50.777 279.176 55.2667V58.1337C275.983 60.5372 272.423 62.4155 268.633 63.697C264.689 64.8483 260.592 65.3914 256.483 65.3074C245.22 65.3074 236.266 62.4607 229.621 56.7673C222.976 51.0739 219.657 43.3472 219.665 33.587C219.665 23.7212 222.91 15.7504 229.4 9.67474C235.89 3.59907 244.427 0.581565 255.012 0.622232C260.232 0.72519 265.393 1.75391 270.251 3.66007C271.538 4.2047 272.912 4.5186 274.309 4.58728C274.941 4.60935 275.56 4.40463 276.053 4.01046C276.546 3.61628 276.88 3.05893 276.994 2.44005C277.35 1.61044 277.779 1.22004 278.22 1.22004C278.661 1.22004 279.078 1.46404 279.078 1.93985C279.078 2.11878 279.029 2.75319 278.931 3.84307C278.612 7.27131 278.465 9.74794 278.465 11.2486V17.1168C278.465 19.2275 278.465 20.1669 278.465 19.9229C278.33 21.3625 277.889 22.0945 277.153 22.0945C276.418 22.0945 276.222 21.6797 276.16 20.8745C275.793 15.1038 273.794 10.5532 270.141 7.25911C266.487 3.96507 261.681 2.29365 255.735 2.29365C252.329 2.16891 248.943 2.86603 245.867 4.32552C242.791 5.78501 240.115 7.96354 238.068 10.6752C233.728 16.2628 231.562 23.8635 231.57 33.4772C231.57 42.7249 233.761 50.0694 238.142 55.5107C242.522 60.952 248.456 63.6726 255.943 63.6726C261.665 63.6726 265.588 62.294 267.713 59.5368C268.78 58.1703 269.307 55.6815 269.307 52.0947C269.307 49.1056 268.976 47.3488 268.289 46.812C267.603 46.2752 265.286 46.0312 261.289 46.0922C260.644 46.1196 259.998 46.0746 259.364 45.958C259.237 45.9242 259.125 45.8471 259.049 45.7402C258.973 45.6332 258.937 45.5031 258.947 45.3724C258.947 44.7136 259.732 44.3842 261.313 44.3842H263.238C264.317 44.4452 268.142 44.4452 274.628 44.3842H286.447C287.881 44.3842 288.592 44.677 288.592 45.2504" fill="#201600"/>
<path d="M346.877 57.121C346.877 58.6827 346.779 61.2813 346.558 64.9047H345.332C344.907 64.9047 343.877 64.8315 342.243 64.6851C340.6 64.5509 338.748 64.4777 336.689 64.4777L292.246 64.2093C291.02 64.2093 290.431 63.9409 290.431 63.4041C290.431 62.8673 291.387 62.7087 293.3 62.5867C295.985 62.4647 297.603 62.2085 298.131 61.8181C298.658 61.4277 298.927 60.2931 298.927 58.4143V7.53965C298.927 5.30702 298.67 4.0138 298.131 3.6478C297.591 3.2818 295.678 3.11099 292.454 3.11099C291.105 3.11099 290.431 2.76939 290.431 2.08618C290.431 1.52497 290.86 1.24437 291.657 1.24437H292.613C294.959 1.37451 299.61 1.44364 306.566 1.45177C307.203 1.45177 308.441 1.45177 310.244 1.34197C312.046 1.23217 313.762 1.21997 314.976 1.21997H316.141C317.367 1.21997 318.053 1.52497 318.053 2.12278C318.061 2.28782 318.006 2.44964 317.899 2.57618C317.792 2.70272 317.642 2.78474 317.477 2.80599C316.257 2.9559 315.028 3.02925 313.799 3.02559C311.739 3.02559 310.513 3.3794 310.121 3.8918C309.729 4.40421 309.532 5.99023 309.532 8.64986V62.0865C311.453 62.1516 314.134 62.1841 317.575 62.1841C325.92 62.1841 331.813 61.8222 335.254 61.0983C338.695 60.3744 341.017 59.0243 342.218 57.0478C343.576 54.5932 344.313 51.8462 344.364 49.0446C344.351 48.8811 344.374 48.7167 344.431 48.5629C344.488 48.409 344.578 48.2693 344.694 48.1534C344.811 48.0374 344.951 47.948 345.106 47.8912C345.26 47.8344 345.425 47.8117 345.59 47.8245C346.485 47.8245 346.901 48.2759 346.816 49.1788V51.4358C346.816 51.5578 346.816 51.8384 346.816 52.2532V57.0478L346.877 57.121Z" fill="#201600"/>
<path d="M409.392 49.6058C409.392 49.8498 409.33 51.3382 409.195 54.0588C409.061 56.7795 408.999 59.4025 408.999 61.8913V64.9048C401.995 64.49 388.132 64.2826 367.413 64.2826H354.012C352.651 64.2826 351.977 64.0142 351.977 63.4896C351.977 62.9649 352.186 62.9405 352.615 62.8795C352.835 62.8795 354.196 62.7941 356.71 62.6233C358.573 62.5013 359.701 62.1719 360.093 61.6229C360.486 61.0739 360.682 59.6587 360.682 57.3651V6.52706C360.682 4.77024 360.375 3.73322 359.775 3.40382C359.174 3.07442 357.212 2.90362 353.914 2.90362C352.762 2.90362 352.186 2.62301 352.186 2.074C352.186 1.525 352.97 1.21999 354.54 1.21999H399.963C401.92 1.23985 403.875 1.10933 405.812 0.82959C405.946 3.44042 406.277 7.05167 406.768 11.6633L407.197 15.5796C407.282 15.9805 407.319 16.39 407.307 16.7996C407.307 17.4096 406.989 17.7146 406.339 17.7146C405.689 17.7146 404.99 16.946 404.635 15.421C403.278 9.9309 401.063 6.45792 397.99 5.00204C395.734 3.87963 389.759 3.31842 380.065 3.31842H371.287V30.0611H373.874C381.925 30.0611 386.829 29.5487 388.586 28.5239C390.343 27.4991 391.549 24.4979 392.203 19.5202C392.342 18.2514 392.722 17.617 393.343 17.617C394.103 17.617 394.483 18.1538 394.483 19.2518C394.483 20.3498 394.41 21.948 394.275 24.0709C394.14 26.1937 394.066 27.8041 394.066 28.9509C394.066 35.4292 394.177 39.9311 394.397 42.3711C394.459 42.9811 394.483 43.5057 394.483 43.9205C394.517 44.0879 394.508 44.2609 394.459 44.4242C394.409 44.5876 394.319 44.7362 394.198 44.8569C394.077 44.9776 393.928 45.0666 393.763 45.1161C393.599 45.1655 393.425 45.174 393.257 45.1405C393.024 45.1496 392.796 45.0779 392.61 44.9377C392.424 44.7975 392.293 44.5975 392.24 44.3719C391.843 42.6981 391.541 41.0037 391.332 39.2967C390.756 35.6366 389.015 33.4772 386.085 32.6232C384.798 32.2572 381.451 32.0742 376.019 32.0742H371.213V62.2207C386.915 62.2207 396.126 61.9483 398.848 61.4033C403.556 60.5168 406.233 56.6941 406.878 49.9352C407.009 48.4468 407.475 47.7026 408.276 47.7026C408.987 47.7026 409.343 48.337 409.343 49.618" fill="#201600"/>
<path d="M479.262 2.02518C479.262 2.51319 478.649 2.75719 477.448 2.75719C473.512 2.81819 471.085 3.4038 470.165 4.48961C469.348 5.16469 466.279 10.3376 460.958 20.0082C458.596 24.3027 456.381 28.0806 454.313 31.3421C453.288 32.7576 452.443 34.2944 451.799 35.9172C451.514 37.667 451.407 39.4409 451.481 41.2121V58.2923C451.481 60.2809 451.787 61.4521 452.388 61.8181C452.989 62.1841 455.134 62.4525 458.8 62.6355C460.737 62.7575 461.706 63.0625 461.706 63.5505C461.706 64.0507 461.203 64.2947 460.198 64.2947H458.91L443.916 64.0873C439.711 64.0873 436.241 64.0873 433.532 64.2215C433.035 64.2737 432.536 64.2981 432.036 64.2947C431.031 64.2947 430.528 64.0019 430.528 63.4041C430.528 62.8063 431.362 62.4891 432.98 62.4281C436.94 62.3061 439.27 62.0011 439.993 61.5253C440.716 61.0495 441.072 59.5977 441.072 57.1943V38.223C440.344 36.9054 438.248 33.3714 434.782 27.6211L424.104 9.66248C423.025 7.90565 421.738 5.9333 420.242 3.7454C419.457 3.1354 417.79 2.83039 415.154 2.83039C412.518 2.83039 411.243 2.50099 411.243 1.82998C411.243 1.15897 411.819 1.09797 412.959 1.09797C414.455 1.09797 417.455 1.19151 421.958 1.37858C424.533 1.47618 426.384 1.51278 427.537 1.51278L439.956 1.30537C440.517 1.16145 441.094 1.09172 441.673 1.09797C442.96 1.09797 443.597 1.40298 443.597 2.01298C443.597 2.62299 442.371 2.84259 439.919 2.84259C435.489 2.84259 433.274 3.5136 433.274 4.85562C433.274 5.88856 435.526 10.061 440.03 17.373L449.838 33.1478C451.628 30.4312 453.671 27.0721 455.968 23.0704L462.294 12.2733C464.575 8.34486 465.715 5.74623 465.715 4.51401C465.715 3.721 465.089 3.294 463.863 3.1354C462.179 2.88731 460.478 2.76092 458.776 2.75719C457.182 2.83039 456.397 2.52539 456.397 1.84218C456.397 1.35417 457.071 1.09797 458.432 1.09797H468.24C475.596 0.91497 479.275 1.23217 479.275 2.02518" fill="#201600"/>
<path d="M77.9747 146.024C77.9747 146.573 77.2145 146.853 75.7188 146.853H48.9058C47.4101 146.853 46.6499 146.585 46.6499 146.036C46.6499 145.487 47.7043 145.121 49.7885 145.121C53.4666 145.121 55.6979 144.791 56.4826 144.133C56.8381 143.828 57.022 141.79 57.022 138.032V90.9765C57.022 91.0375 56.6542 92.0867 55.9186 94.1485C53.0661 101.469 48.9385 112.473 43.5359 127.162L38.4602 141.522C37.4548 144.364 36.7437 145.78 36.3146 145.78C35.8855 145.78 35.2725 145.06 34.7085 143.608C32.6652 138.15 26.8866 124.409 17.3727 102.384L13.0693 92.7821V126.943C13.0693 137.971 13.1715 143.543 13.3758 143.657C13.8785 144.45 15.5704 144.877 18.4638 144.877C20.7932 144.877 21.958 145.206 21.958 145.853C21.958 146.499 21.2101 146.951 19.7144 146.951C18.8518 146.954 17.9905 146.885 17.1397 146.743C16.2574 146.571 15.3645 146.457 14.467 146.402L2.20683 146.817C0.980813 146.817 0.269724 146.548 0.269724 145.999C0.269724 145.45 2.30491 145.06 6.39981 144.999C8.11623 144.999 9.12157 144.767 9.40355 144.279C9.80137 142.751 9.93814 141.167 9.80814 139.594V96.1005C9.89176 93.3741 9.82218 90.6452 9.59971 87.9265C9.45672 87.5146 9.21599 87.1433 8.89798 86.8438C8.57996 86.5443 8.19403 86.3256 7.77295 86.2062C5.80462 85.7608 3.79589 85.5155 1.77772 85.4742C0.563968 85.401 0 85.1326 0 84.6324C0 83.9492 1.04211 83.6076 3.12634 83.6076H10.556C14.798 83.6076 17.7813 83.6076 19.5059 83.6076C19.8574 84.4209 21.9539 89.1749 25.7954 97.8696C27.4301 101.489 31.995 112.042 39.49 129.529C40.8223 125.625 42.1995 121.782 43.6217 118L54.9991 87.9631C55.5631 86.2184 56.078 84.7666 56.5194 83.632H72.7886C74.1682 83.542 75.5537 83.6363 76.908 83.9126C77.0683 83.9782 77.2052 84.0898 77.3013 84.2333C77.3974 84.3767 77.4483 84.5454 77.4475 84.7178C77.4475 85.3278 76.8345 85.6328 75.6085 85.6328C74.2368 85.5987 72.8644 85.6598 71.5013 85.8158C70.1801 85.8789 68.9206 86.3914 67.9336 87.2676C67.5658 87.6946 67.3941 91.2327 67.3941 97.894V140.131C67.3941 142.571 67.6761 143.974 68.2524 144.401C69.176 144.954 71.489 145.226 75.1916 145.218H75.8291C77.2513 145.218 77.9747 145.499 77.9747 146.048" fill="#201600"/>
<path d="M117.195 145.767C117.195 146.316 116.766 146.597 115.969 146.597H114.89C114.465 146.418 109.606 146.329 100.313 146.329C98.5193 146.327 96.7269 146.416 94.9427 146.597H90.6517C89.7199 146.597 89.254 146.316 89.254 145.767C89.254 145.218 90.1735 144.999 92.0248 144.938C94.8569 144.938 96.5243 144.596 97.0147 144.084C97.5051 143.571 97.7626 141.827 97.7626 138.874V91.2937C97.7626 88.3413 97.5787 86.6821 97.2231 86.3161C96.794 85.7183 94.7711 85.3523 91.3015 85.2303C89.9406 85.2303 89.254 84.9131 89.254 84.4495C89.254 83.9859 89.6954 83.571 90.5536 83.571H105.143C106.222 83.571 108.319 83.6442 111.42 83.7784L115.528 83.571C116.68 83.571 117.256 83.8639 117.256 84.4617C117.256 85.0595 115.65 85.3157 112.463 85.4377C110.648 85.4377 109.545 85.7793 109.14 86.2551C108.735 86.7309 108.539 87.9997 108.539 90.0371V138.191C108.539 141.619 108.723 143.474 109.079 143.779C109.896 144.438 112.225 144.844 116.067 144.999C116.852 144.999 117.293 145.279 117.293 145.828" fill="#201600"/>
<path d="M173.114 128.98C173.114 134.137 170.776 138.537 166.101 142.18C161.269 145.863 155.314 147.783 149.231 147.622C144.492 147.439 139.821 146.44 135.426 144.669C134.406 144.229 133.321 143.957 132.214 143.864C131.355 143.864 130.816 144.694 130.608 146.304C130.619 146.486 130.589 146.668 130.52 146.837C130.452 147.006 130.346 147.157 130.211 147.28C130.075 147.403 129.914 147.494 129.739 147.547C129.564 147.6 129.379 147.613 129.198 147.585C129.05 147.606 128.9 147.592 128.758 147.545C128.617 147.497 128.489 147.417 128.384 147.312C128.279 147.206 128.201 147.078 128.155 146.937C128.109 146.796 128.096 146.646 128.119 146.499C128.109 146.131 128.142 145.762 128.217 145.401C128.767 142.012 129.054 138.586 129.075 135.153C129.075 134.555 129.001 132.86 128.867 130.078C128.783 129.599 128.747 129.112 128.756 128.626C128.756 127.711 129.185 127.26 129.982 127.26C130.779 127.26 131.208 127.992 131.478 129.456C133.342 140.306 139.378 145.727 149.586 145.719C153.939 145.719 157.322 144.682 159.713 142.607C160.934 141.504 161.89 140.141 162.511 138.621C163.133 137.101 163.404 135.462 163.305 133.823C163.334 132.228 163.039 130.643 162.439 129.163C161.839 127.683 160.945 126.339 159.811 125.21C157.49 122.843 153.501 120.485 147.845 118.134C141.053 115.312 136.333 112.579 133.685 109.935C132.387 108.651 131.365 107.116 130.682 105.426C129.999 103.735 129.669 101.924 129.713 100.102C129.685 97.7552 130.193 95.4327 131.197 93.309C132.202 91.1854 133.677 89.3159 135.512 87.841C139.596 84.4994 144.769 82.7632 150.052 82.961C153.481 83.1404 156.871 83.7764 160.13 84.852C161.205 85.2111 162.321 85.4325 163.453 85.5108C163.999 85.5788 164.552 85.4489 165.01 85.1448C165.403 84.5806 165.643 83.9251 165.708 83.2416C165.754 82.9616 165.907 82.7103 166.137 82.5416C166.366 82.3729 166.652 82.3001 166.934 82.3388C167.082 82.318 167.233 82.332 167.374 82.3794C167.515 82.4268 167.643 82.5065 167.748 82.612C167.853 82.7175 167.931 82.8459 167.977 82.987C168.024 83.1281 168.036 83.2779 168.013 83.4246C168.027 83.7939 167.989 84.1632 167.903 84.5226C167.674 86.2658 167.568 88.0228 167.584 89.7808C167.536 92.0946 167.716 94.4076 168.124 96.6861L168.222 98.138C168.295 98.809 167.977 99.1384 167.265 99.1384C166.554 99.1384 165.941 98.4552 165.659 97.0887C164.812 93.6364 162.834 90.5631 160.037 88.3539C157.24 86.1447 153.783 84.9254 150.212 84.8886C147.083 84.7113 144.007 85.7477 141.629 87.78C140.591 88.7788 139.778 89.9863 139.245 91.3221C138.713 92.658 138.472 94.0915 138.54 95.5271C138.495 97.3304 138.892 99.1176 139.695 100.735C140.498 102.352 141.683 103.751 143.15 104.811C144.866 106.145 148.585 108.008 154.306 110.399C160.96 113.254 165.762 116.125 168.712 119.012C170.09 120.287 171.192 121.829 171.949 123.543C172.705 125.257 173.102 127.108 173.114 128.98" fill="#201600"/>
<path d="M244.357 126.394C244.357 126.272 244.284 127.089 244.149 128.834C243.855 132.335 243.72 135.714 243.72 138.972C243.72 139.338 243.793 140.082 243.928 141.192C244.088 142.532 244.162 143.881 244.149 145.231V146.036C244.149 146.829 243.855 147.256 243.291 147.256C242.727 147.256 242.212 146.804 241.795 145.902C241.154 144.364 240.118 143.022 238.791 142.01C233.393 145.843 226.883 147.814 220.254 147.622C209.759 147.622 201.067 144.539 194.177 138.374C190.852 135.474 188.209 131.883 186.433 127.854C184.658 123.825 183.794 119.457 183.903 115.06C183.903 105.617 187.062 97.8899 193.38 91.8793C199.698 85.8687 207.871 82.8756 217.9 82.9C220.832 82.8359 223.762 83.0813 226.641 83.632C229.393 84.3569 232.063 85.3583 234.611 86.621C235.701 87.2249 236.901 87.6064 238.141 87.7434C238.791 87.7434 239.368 87.2554 239.968 86.2916C240.9 84.5958 241.648 83.7418 242.224 83.7418C242.8 83.7418 243.07 83.9858 243.07 84.4738C243.051 84.8874 242.981 85.2971 242.862 85.6938C242.044 88.5893 241.636 94.0265 241.636 102.005C241.636 103.152 241.525 103.823 241.317 104.006C241.075 104.201 240.769 104.297 240.459 104.275C239.748 104.275 239.233 103.713 239.061 102.579C238.146 97.8208 236.826 94.2827 235.101 91.9647C231.603 87.2066 226.11 84.8276 218.623 84.8276C212.837 84.8276 208.268 86.4543 204.916 89.7077C198.844 95.5312 195.811 104.071 195.819 115.328C195.819 125.356 198.316 133.132 203.31 138.655C207.659 143.453 213.441 145.853 220.658 145.853C224.18 145.893 227.662 145.107 230.822 143.559C233.724 142.175 236.173 140.001 237.884 137.288C239.753 134.194 241.095 130.814 241.856 127.284C242.138 125.845 242.604 125.112 243.242 125.112C243.879 125.112 244.308 125.576 244.308 126.479" fill="#201600"/>
<path d="M325.422 145.719C325.422 146.304 324.747 146.597 323.411 146.597H300.117C298.694 146.597 297.996 146.353 297.996 145.865C297.996 145.377 299.663 145.06 302.986 144.877C304.751 144.755 305.781 144.499 306.075 144.108C306.478 142.739 306.619 141.308 306.492 139.887V113.461H274.211V139.192C274.211 141.924 274.456 143.523 274.959 144.072C275.461 144.621 277.166 144.889 280.047 145.072C281.923 145.194 282.867 145.462 282.867 145.889C282.867 146.316 282.156 146.707 280.721 146.707H257.464C256.041 146.707 255.318 146.463 255.318 145.987C255.318 145.511 256.029 145.194 257.451 145.072L260.32 144.889C261.389 144.945 262.444 144.626 263.299 143.986C263.634 142.32 263.741 140.617 263.618 138.923V91.0375C263.618 88.3291 263.459 86.7309 263.14 86.2429C262.821 85.7671 261.706 85.4864 259.793 85.4254C257.586 85.3034 256.299 85.1936 255.906 85.1326C255.514 85.0716 255.318 84.8032 255.318 84.3518C255.318 83.9004 255.784 83.5588 256.716 83.5588L258.542 83.632C260.32 83.7296 264.538 83.7662 271.183 83.7662C274.861 83.7662 277.313 83.7662 278.784 83.6686C279.422 83.587 280.065 83.5503 280.709 83.5588C281.996 83.5588 282.634 83.8638 282.634 84.4738C282.634 85.0838 281.469 85.279 279.115 85.279C276.761 85.279 275.363 85.5108 274.898 85.9623C274.432 86.4137 274.199 87.8533 274.199 90.2689V111.143H306.504V91.6231C306.504 88.4145 306.222 86.5357 305.646 85.9501C305.07 85.3644 303.059 85.1204 299.614 85.1814C298.547 85.1814 298.008 84.913 298.008 84.364C298.008 83.815 298.609 83.5466 299.822 83.5466H323.117C324.612 83.5466 325.36 83.8272 325.36 84.364C325.36 84.9008 323.803 85.2058 320.689 85.2668C320.01 85.2411 319.33 85.3026 318.666 85.4499C318.377 85.4927 318.104 85.6066 317.871 85.7813C317.637 85.956 317.451 86.1859 317.33 86.4503C317.085 87.8515 316.999 89.2756 317.072 90.6959V138.862C317.072 141.754 317.244 143.449 317.6 143.925C318.298 144.596 320.321 144.926 323.73 144.926C324.858 144.804 325.409 145.06 325.409 145.706" fill="#201600"/>
<path d="M405.812 145.78C405.812 146.329 405.309 146.597 404.316 146.597H376.706C375.357 146.597 374.671 146.353 374.671 145.853C374.671 145.353 375.566 145.06 377.356 144.938C381.034 144.645 382.922 144.133 382.922 143.401C382.922 142.669 373.175 132.872 353.681 114.12V140.18C353.681 142.29 354.074 143.596 354.907 144.108C355.741 144.621 357.801 144.877 361.246 144.877C362.031 144.877 362.472 145.17 362.472 145.767C362.472 146.365 361.969 146.585 360.964 146.585H336.014C334.936 146.585 334.396 146.341 334.396 145.841C334.396 145.34 335.708 144.987 338.332 144.926C340.784 144.926 342.157 144.413 342.586 143.571C342.794 143.266 342.905 141.375 342.905 137.874V87.5361C342.831 86.3161 340.857 85.6329 337.008 85.6329C335.267 85.6329 334.396 85.2912 334.396 84.608C334.396 84.0468 335.009 83.7662 336.235 83.7662C336.591 83.7662 337.069 83.7662 337.645 83.8394C338.797 83.937 341.997 83.9736 347.257 83.9736C352.884 83.9736 356.452 83.9736 357.96 83.8394C358.757 83.8394 359.578 83.7662 360.412 83.7662C361.712 83.7662 362.362 84.1078 362.362 84.7666C362.368 84.9342 362.31 85.0978 362.197 85.223C362.085 85.3482 361.929 85.4251 361.761 85.4377C360.512 85.5944 359.255 85.6719 357.997 85.6695C355.9 85.6695 354.65 85.9745 354.245 86.3893C353.841 86.8041 353.645 88.1705 353.645 90.4519V112.498L362.742 104.799C376.555 93.1359 383.461 87.0765 383.461 86.6211C383.461 85.8281 381.745 85.4743 378.324 85.5231C376.13 85.5841 375.039 85.2913 375.039 84.6202C375.039 84.2054 375.541 83.9614 376.547 83.9004C377.552 83.8394 381.022 83.8028 386.98 83.8028H392.889C395.403 83.8028 396.837 83.8028 397.193 83.9004C397.904 84.0224 398.272 84.3396 398.272 84.8398C398.272 85.5353 397.487 85.8769 395.93 85.8769C393.832 85.7734 391.729 85.8305 389.64 86.0477C388.62 86.265 387.671 86.735 386.882 87.4141C382.231 91.5215 375.161 97.6866 365.672 105.91L362.901 108.24L361.467 109.46C361.883 109.875 363.669 111.501 366.824 114.34C372.832 119.586 381.447 128.008 392.669 139.606C394.132 141.239 395.777 142.7 397.573 143.962C399.232 144.59 400.996 144.896 402.771 144.865C404.843 144.987 405.885 145.292 405.885 145.767" fill="#201600"/>
<path d="M475.229 145.914C475.229 146.512 474.689 146.804 473.623 146.804C472.971 146.81 472.321 146.74 471.685 146.597L458.089 146.402L444.48 146.609C443.956 146.748 443.416 146.818 442.874 146.817C441.44 146.817 440.729 146.487 440.729 145.828C440.729 145.17 441.697 144.743 443.622 144.743C449.915 144.686 453.058 144.157 453.05 143.157C452.993 142.92 452.92 142.687 452.829 142.461L451.959 140.094L451.407 138.874C450.77 136.987 449.2 132.811 446.699 126.345H423.797C419.514 136.105 417.377 141.697 417.385 143.12C417.353 143.485 417.462 143.849 417.69 144.136C417.917 144.424 418.247 144.615 418.611 144.669C418.832 144.669 420.61 144.852 423.969 145.035C426.041 145.035 427.083 145.401 427.083 145.95C427.083 146.499 426.151 146.865 424.288 146.865C421.002 146.865 417.189 146.756 412.824 146.536C411.758 146.536 410.654 146.451 409.514 146.451C408.401 146.45 407.289 146.543 406.192 146.731C405.73 146.809 405.262 146.854 404.794 146.865C403.801 146.865 403.298 146.597 403.298 146.048C403.298 145.499 404.426 145.194 406.67 145.133C408.348 145.193 410.019 144.898 411.574 144.267C412.697 143.604 413.535 142.553 413.928 141.314C423.115 118.972 430.593 101.038 436.364 87.5117C436.575 86.6567 436.905 85.8354 437.345 85.0717L437.811 83.4125C438.031 82.6927 438.313 82.3267 438.669 82.3267C439.024 82.3267 439.061 82.5463 439.208 82.9611C440.132 85.3198 442.237 90.2446 445.522 97.7354C448.097 103.608 454.489 118.329 464.697 141.9C464.883 142.431 465.173 142.92 465.549 143.338C465.926 143.757 466.382 144.098 466.892 144.34C468.692 144.806 470.55 145.012 472.409 144.95C474.272 144.95 475.204 145.34 475.204 145.926L475.229 145.914ZM446.025 124.21C444.872 121.526 442.964 117.052 440.299 110.79L435.236 98.3333C432.277 104.97 428.718 113.592 424.557 124.198L446.025 124.21Z" fill="#201600"/>
<path d="M481.199 140.302C480.438 140.292 479.691 140.507 479.053 140.92C478.414 141.333 477.913 141.925 477.613 142.621C477.313 143.318 477.227 144.087 477.366 144.832C477.505 145.577 477.863 146.264 478.394 146.806C478.926 147.349 479.607 147.722 480.351 147.88C481.096 148.037 481.871 147.971 482.578 147.69C483.285 147.409 483.893 146.926 484.324 146.301C484.755 145.677 484.99 144.939 485 144.181C485.011 143.677 484.922 143.175 484.736 142.706C484.55 142.237 484.272 141.809 483.918 141.447C483.564 141.086 483.142 140.799 482.675 140.602C482.208 140.405 481.706 140.303 481.199 140.302ZM481.089 147.305C480.452 147.314 479.827 147.134 479.293 146.788C478.759 146.442 478.342 145.945 478.093 145.362C477.845 144.778 477.778 144.134 477.9 143.511C478.021 142.889 478.327 142.317 478.778 141.869C479.228 141.421 479.803 141.117 480.428 140.995C481.053 140.874 481.701 140.941 482.287 141.188C482.874 141.435 483.373 141.851 483.721 142.382C484.069 142.913 484.25 143.535 484.24 144.169C484.247 144.583 484.17 144.993 484.014 145.377C483.858 145.76 483.626 146.108 483.332 146.401C483.038 146.693 482.688 146.924 482.303 147.079C481.917 147.235 481.505 147.311 481.089 147.305" fill="#201600"/>
<path d="M481.751 144.45C481.91 144.452 482.067 144.421 482.214 144.36C482.36 144.298 482.492 144.207 482.601 144.093C482.711 143.978 482.795 143.843 482.849 143.694C482.903 143.546 482.926 143.387 482.916 143.23C482.916 142.364 482.413 142.01 481.383 142.01H479.704L479.63 146.414H480.292V144.499H481.052L482.192 146.426H482.94L481.751 144.45ZM480.329 143.889V142.522H481.236C481.702 142.522 482.192 142.644 482.18 143.193C482.168 143.742 481.665 143.901 481.101 143.889H480.329Z" fill="#201600"/>
</g>
<defs>
<clipPath id="clip0">
<rect width="485" height="148" fill="white"/>
</clipPath>
</defs>
</svg>
