<svg width="146" height="83" viewBox="0 0 146 83" fill="none" xmlns="http://www.w3.org/2000/svg">
<g clip-path="url(#clip0)">
<path d="M20.6439 6.3711H20.259C20.1912 4.98628 19.5946 3.6803 18.5921 2.72254C17.5896 1.76479 16.2577 1.22833 14.8712 1.22382C10.5177 1.22382 9.94043 6.20273 9.94043 9.16121C9.94043 12.1197 10.5177 17.1226 14.8712 17.1226C16.3219 17.0606 17.6924 16.4403 18.6965 15.3915C19.7005 14.3426 20.2604 12.9463 20.259 11.4943H20.6439V16.834H20.259C20.259 16.4011 20.0185 15.7276 19.4172 15.7276C18.8159 15.7276 17.3968 17.4834 14.8712 17.4834C12.7445 17.369 10.7427 16.4435 9.27771 14.8976C7.81277 13.3517 6.99625 11.303 6.99625 9.17323C6.99625 7.04346 7.81277 4.99475 9.27771 3.44884C10.7427 1.90293 12.7445 0.977493 14.8712 0.863037C17.2765 0.863037 18.4551 2.49862 19.345 2.49862C20.235 2.49862 20.259 2.06567 20.259 1.53651H20.6439V6.3711Z" fill="white"/>
<path d="M34.3058 0.863067C35.9725 0.747176 37.6356 1.13564 39.0785 1.97791C40.5214 2.82018 41.6774 4.07725 42.3961 5.58555C43.1147 7.09385 43.3627 8.78354 43.1079 10.4347C42.853 12.086 42.107 13.6222 40.9671 14.8436C39.8271 16.0651 38.3458 16.9151 36.7161 17.2831C35.0864 17.6511 33.3836 17.52 31.8294 16.907C30.2752 16.2939 28.9414 15.2273 28.0018 13.8458C27.0621 12.4643 26.56 10.832 26.5608 9.16124C26.5021 7.03776 27.2818 4.97655 28.7313 3.42358C30.1807 1.87061 32.1833 0.950767 34.3058 0.863067ZM34.3058 17.1227C38.6593 17.1227 39.1163 12.1197 39.1163 9.16124C39.1163 6.20276 38.5391 1.22385 34.3058 1.22385C30.0725 1.22385 29.3509 6.20276 29.3509 9.16124C29.3509 12.1197 29.9523 17.1227 34.3058 17.1227Z" fill="white"/>
<path d="M49.2906 1.58467H46.8853V1.22388H54.3176V1.58467H51.9123V16.7619H54.9911C59.8016 16.7619 61.1485 16.1846 61.1485 11.9514H61.5334V17.1467H47.1018V16.7619H49.5071L49.2906 1.58467Z" fill="white"/>
<path d="M74.4497 0.863066C76.117 0.742277 77.7821 1.12643 79.228 1.96548C80.6739 2.80453 81.8336 4.05958 82.556 5.56715C83.2784 7.07471 83.5301 8.76489 83.2782 10.4175C83.0263 12.0701 82.2825 13.6086 81.1438 14.8325C80.005 16.0564 78.5241 16.9089 76.8939 17.2791C75.2637 17.6493 73.5598 17.52 72.0041 16.9079C70.4485 16.2959 69.1132 15.2296 68.1723 13.8478C67.2313 12.4661 66.7283 10.833 66.7288 9.16124C66.6761 7.04346 67.4546 4.98922 68.8977 3.43829C70.3407 1.88736 72.3336 0.96299 74.4497 0.863066ZM74.4497 17.1227C78.8272 17.1227 79.4045 12.1197 79.4045 9.16124C79.4045 6.20276 78.8272 1.22385 74.4497 1.22385C70.0721 1.22385 69.6391 6.20276 69.6391 9.16124C69.6391 12.1197 70.2164 17.1227 74.4497 17.1227Z" fill="white"/>
<path d="M86.6203 1.22388H94.0285V1.58467H91.4549V13.3945C91.4585 13.9227 91.5729 14.4443 91.7907 14.9256C92.0085 15.4068 92.3248 15.837 92.7192 16.1884C93.1137 16.5397 93.5774 16.8044 94.0805 16.9654C94.5837 17.1263 95.1149 17.1799 95.6401 17.1227C99.0555 17.1227 101.22 15.6074 101.22 12.3122V3.17215C101.22 1.96951 100.787 1.65683 99.705 1.65683H98.358V1.29604H104.034V1.65683H102.928C101.87 1.65683 101.605 2.04167 101.605 3.19619V12.5767C101.605 16.1125 98.8631 17.5556 95.616 17.5556C91.5752 17.5556 88.9534 16.6657 88.9534 13.0818V1.58467H86.5482L86.6203 1.22388Z" fill="white"/>
<path d="M110.192 1.58467H107.787V1.22388H115.291C118.129 1.22388 121.184 1.80114 121.184 5.21662C121.184 7.95862 117.72 8.68021 115.94 8.89668C118.755 9.11315 120.246 9.69042 120.607 12.6729L120.967 15.4149C121.136 16.7619 121.809 16.8341 122.218 16.8341C122.566 16.8323 122.91 16.7586 123.228 16.6176L123.373 16.9062C122.729 17.1155 122.053 17.2131 121.376 17.1948C118.394 17.1948 118.225 15.7276 117.865 13.1299L117.696 11.783C117.528 10.3639 117.095 9.06505 114.329 9.06505H112.741V16.7619H115.147V17.1227H107.739V16.7619H110.144L110.192 1.58467ZM112.597 8.80047H113.824C116.71 8.80047 118.394 7.88646 118.394 5.26472C118.394 3.46077 117.72 1.63278 114.257 1.63278H112.597V8.80047Z" fill="white"/>
<path d="M127.871 11.5425H128.255C128.184 12.2807 128.274 13.0257 128.519 13.7255C128.765 14.4254 129.161 15.0631 129.678 15.5944C130.196 16.1257 130.823 16.5377 131.516 16.8017C132.209 17.0656 132.952 17.1752 133.691 17.1227C134.184 17.1792 134.683 17.1343 135.157 16.9908C135.631 16.8473 136.071 16.6082 136.45 16.2883C136.828 15.9683 137.138 15.5743 137.358 15.1304C137.579 14.6865 137.706 14.2022 137.732 13.7072C137.732 11.302 136.409 10.6525 133.595 10.2436C129.747 9.69044 127.943 9.08912 127.943 5.2888C127.925 4.6904 128.032 4.09485 128.257 3.54018C128.483 2.98552 128.821 2.48392 129.251 2.06745C129.681 1.65097 130.193 1.32875 130.755 1.12138C131.317 0.914016 131.915 0.826058 132.513 0.863115C134.918 0.863115 135.976 2.23412 136.818 2.23412C137.66 2.23412 137.444 1.65685 137.516 1.36822H137.925V6.17875H137.516C137.516 5.5305 137.386 4.88883 137.132 4.29229C136.878 3.69574 136.507 3.15662 136.039 2.70731C135.572 2.258 135.019 1.90777 134.413 1.67766C133.807 1.44754 133.161 1.34229 132.513 1.36822C132.059 1.31407 131.599 1.35622 131.163 1.49192C130.727 1.62762 130.324 1.85382 129.982 2.15574C129.639 2.45766 129.364 2.8285 129.174 3.24404C128.984 3.65957 128.884 4.11046 128.881 4.56723C128.881 6.58765 129.723 6.97249 133.691 7.71812C137.251 8.29538 138.718 9.37775 138.718 12.3122C138.775 13.0161 138.676 13.7239 138.429 14.3853C138.181 15.0467 137.791 15.6455 137.286 16.1391C136.781 16.6327 136.173 17.0091 135.506 17.2414C134.839 17.4737 134.129 17.5564 133.427 17.4835C131.022 17.4835 129.675 16.3049 128.761 16.3049C127.847 16.3049 128.159 16.8581 128.159 17.243H127.774L127.871 11.5425Z" fill="white"/>
<path d="M6.42871 73.1414H7.63135L11.0228 81.9446H9.82014L8.83398 79.2748H5.32229L4.38424 81.9446H3.20566L6.42871 73.1414ZM8.61751 78.3367L7.72756 75.9315C7.46298 75.1858 7.27056 74.5845 7.12624 74.1035C7.0273 74.6754 6.88252 75.2385 6.6933 75.7872L5.75524 78.3608L8.61751 78.3367Z" fill="white"/>
<path d="M13.5243 73.1654H14.6307V80.9344H18.7677V81.9687H13.5243V73.1654Z" fill="white"/>
<path d="M21.7022 73.1654H27.7875V74.1997H22.8327V76.8936H27.4748V77.9278H22.8327V80.9344H27.9799V81.9687H21.7022V73.1654Z" fill="white"/>
<path d="M33.512 77.3745L30.6498 73.1412H31.9727L33.488 75.4022C33.8007 75.8833 34.0412 76.2441 34.1615 76.4846C34.3539 76.1719 34.5704 75.8351 34.8349 75.4744L36.5186 73.0691H37.7453L34.7868 77.2302L37.9618 81.9445H36.5908L34.4741 78.7936L34.1133 78.2163L33.7045 78.8658L31.5878 81.9445H30.2649L33.512 77.3745Z" fill="white"/>
<path d="M42.8445 73.1414H44.0471L47.4866 81.9446H46.2359L45.2257 79.2748H41.714L40.8 81.9446H39.6214L42.8445 73.1414ZM42.0507 78.3367H44.8889L44.023 75.9315C43.7856 75.3349 43.5848 74.7245 43.4217 74.1035C43.3031 74.6733 43.1505 75.2356 42.9647 75.7872L42.0507 78.3367Z" fill="white"/>
<path d="M49.94 73.1654H51.0945L55.5202 80.0926V73.1654H56.5785V81.9687H55.4481L51.0224 75.0415V81.9687H49.94V73.1654Z" fill="white"/>
<path d="M60.0421 73.1414H62.9284C63.4243 73.092 63.9238 73.092 64.4197 73.1414C64.8846 73.2493 65.3148 73.4726 65.6704 73.7908C66.1191 74.1973 66.4582 74.7101 66.6566 75.2821C66.8965 75.953 67.0106 76.6624 66.9933 77.3747C67.003 77.983 66.9302 78.5898 66.7769 79.1786C66.6476 79.6294 66.4531 80.0589 66.1996 80.4534C65.9872 80.7575 65.7273 81.0255 65.4299 81.2471C65.13 81.4704 64.7854 81.6263 64.4197 81.7042C63.9782 81.8063 63.5259 81.8548 63.0727 81.8485H60.0421V73.1414ZM62.9525 80.9345C63.3913 80.9424 63.829 80.8856 64.2513 80.7661C64.5367 80.6843 64.7945 80.5263 64.997 80.3091C65.2844 79.9909 65.4979 79.613 65.6223 79.2027C65.7777 78.6471 65.8506 78.0717 65.8388 77.4949C65.8777 76.7563 65.7287 76.0198 65.4059 75.3542C65.175 74.9151 64.8019 74.5674 64.3475 74.3681C63.8801 74.2278 63.3916 74.1708 62.9044 74.1997H61.1485V80.9345H62.9525Z" fill="white"/>
<path d="M70.1442 73.1654H76.2296V74.1997H71.2506V76.8936H75.8928V77.9278H71.2506V80.9344H76.3979V81.9687H70.1442V73.1654Z" fill="white"/>
<path d="M79.5488 73.1413H83.1808C83.7675 73.1235 84.3529 73.2049 84.9126 73.3818C85.3062 73.5471 85.6295 73.845 85.8266 74.2237C86.0654 74.6234 86.1901 75.0809 86.1874 75.5466C86.1932 76.1281 85.9881 76.6921 85.6101 77.1341C85.1241 77.6109 84.4851 77.9006 83.8061 77.9518C84.0508 78.0621 84.2777 78.208 84.4796 78.3848C84.8988 78.718 85.2709 79.1064 85.586 79.5393L87.0292 81.9446H85.586L84.4796 80.1166C84.2298 79.6929 83.9568 79.2834 83.6618 78.8899C83.5345 78.6792 83.3717 78.4921 83.1808 78.3367C83.0277 78.2277 82.8568 78.1463 82.6757 78.0962H82.0503H80.7755V81.9446H79.6691L79.5488 73.1413ZM83.1808 77.1341C83.5886 77.1535 83.9965 77.0964 84.3834 76.9657C84.6533 76.8675 84.8821 76.681 85.0328 76.4365C85.1768 76.197 85.2517 75.9223 85.2493 75.6428C85.2554 75.453 85.2198 75.2642 85.1449 75.0896C85.0701 74.9151 84.958 74.7591 84.8164 74.6326C84.4313 74.3205 83.9384 74.1735 83.4454 74.2237H80.7755V77.1341H83.1808Z" fill="white"/>
<path d="M94.8944 79.3229C94.8742 79.8058 95 80.2835 95.2552 80.6939C95.3622 80.8243 95.4987 80.9273 95.6535 80.9942C95.8083 81.0612 95.9769 81.0901 96.1452 81.0787C96.4029 81.0875 96.6564 81.0114 96.8668 80.8623C97.0656 80.7386 97.2179 80.5525 97.2997 80.3331C97.3909 79.9717 97.4314 79.5993 97.42 79.2267V73.1414H98.5264V79.1545C98.5488 79.7355 98.459 80.3153 98.2618 80.8623C98.1084 81.2542 97.8292 81.5842 97.4681 81.8003C97.0623 82.019 96.606 82.1269 96.1452 82.113C95.832 82.1342 95.518 82.0847 95.2266 81.9681C94.9351 81.8515 94.6736 81.6709 94.4615 81.4395C94.0359 80.8749 93.8384 80.1708 93.9083 79.4672L94.8944 79.3229Z" fill="white"/>
<path d="M108.556 73.1414V78.2405C108.581 78.9573 108.483 79.6731 108.268 80.3572C108.067 80.881 107.705 81.3274 107.233 81.632C106.643 81.9746 105.967 82.1415 105.285 82.113C104.612 82.1354 103.944 81.9951 103.337 81.7041C102.849 81.4239 102.474 80.9813 102.279 80.4534C102.031 79.7428 101.917 78.9926 101.942 78.2405V73.1414H103.048V78.2405C103.02 78.8101 103.093 79.3803 103.265 79.9242C103.384 80.2819 103.633 80.582 103.962 80.7661C104.336 80.978 104.759 81.0859 105.189 81.0787C105.504 81.1065 105.821 81.0673 106.119 80.9636C106.418 80.86 106.691 80.6943 106.921 80.4774C107.354 79.8169 107.541 79.0251 107.45 78.2405V73.1414H108.556Z" fill="white"/>
<path d="M111.948 73.1654H113.078V80.9344H117.215V81.9687H111.948V73.1654Z" fill="white"/>
<path d="M121.425 73.1654H120.318V81.9927H121.425V73.1654Z" fill="white"/>
<path d="M127.269 73.1414H128.472L131.911 81.9446H130.661L129.675 79.2748H126.163L125.225 81.9446H124.07L127.269 73.1414ZM129.338 78.3367L128.448 75.9315C128.183 75.1858 127.991 74.5845 127.847 74.1035C127.748 74.6754 127.603 75.2385 127.414 75.7872L126.476 78.3367H129.338Z" fill="white"/>
<path d="M134.389 73.1654H135.519L139.945 80.0926V73.1654H141.027V81.9687H139.873L135.471 75.0415V81.9687H134.389V73.1654Z" fill="white"/>
<path d="M85.0328 25.036L85.7785 26.2867H84.2872L85.0328 25.036Z" fill="#307756"/>
<path d="M85.7785 26.2869L86.4519 27.4414H83.5416L84.2872 26.2869" fill="#A93F37"/>
<path d="M86.4519 27.4413L87.1735 28.668H82.7959L83.5416 27.4413" fill="#307756"/>
<path d="M87.1735 28.668L87.847 29.8465H82.0743L82.7959 28.668" fill="#A93F37"/>
<path d="M87.847 29.8466L88.5205 31.0011H81.3768L82.0744 29.8466" fill="#307756"/>
<path d="M88.5205 31.0011L89.194 32.1075H80.7274L81.3768 31.0011" fill="#A93F37"/>
<path d="M89.1939 32.1074L89.8674 33.262L79.9818 33.286L80.7274 32.1315" fill="#307756"/>
<path d="M89.8674 33.262L90.5649 34.4886H79.2121L79.9818 33.286" fill="#A93F37"/>
<path d="M90.5649 34.4886L91.2625 35.6672H78.4905L79.2361 34.4886" fill="#307756"/>
<path d="M91.2625 35.6672L91.936 36.8218H77.793L78.4905 35.6672" fill="#A93F37"/>
<path d="M91.936 36.8218L92.5613 37.9282H77.0955L77.793 36.8218" fill="#307756"/>
<path d="M92.5613 37.9042L93.2829 39.0587H76.3979L77.1195 37.9042" fill="#A93F37"/>
<path d="M93.2829 39.0828L93.9804 40.3094H75.6282L76.3979 39.0828" fill="#307756"/>
<path d="M93.9804 40.3094L94.6539 41.488H74.9307L75.6283 40.3094" fill="#A93F37"/>
<path d="M94.6539 41.488L95.3274 42.6185H74.2091L74.9307 41.488" fill="#307756"/>
<path d="M95.3274 42.6184L95.9768 43.7489H73.5838L74.2091 42.6184" fill="#A93F37"/>
<path d="M73.5838 43.7489L72.8622 44.9034H96.6984L95.9768 43.7489" fill="#307756"/>
<path d="M84.5037 64.7951L83.7821 63.5443H85.2734L84.5037 64.7951Z" fill="#A93F37"/>
<path d="M83.7821 63.5442L83.0846 62.3896H85.9949L85.2734 63.5442" fill="#307756"/>
<path d="M83.0846 62.3898L82.3871 61.1631H86.7406L85.995 62.3898" fill="#A93F37"/>
<path d="M82.387 61.163L81.7136 59.9844H87.4862L86.7406 61.163" fill="#307756"/>
<path d="M81.7136 59.9845L81.0161 58.83H88.1837L87.4862 59.9845" fill="#A93F37"/>
<path d="M81.016 58.8299L80.3666 57.6754H88.8332L88.1837 58.8299" fill="#307756"/>
<path d="M80.3666 57.7236L79.6931 56.5691H89.5788L88.8331 57.7236" fill="#A93F37"/>
<path d="M79.6931 56.5691L78.9716 55.3424H90.3485L89.5788 56.5691" fill="#307756"/>
<path d="M78.9716 55.3424L78.2981 54.1638H91.0701L90.3004 55.3424" fill="#A93F37"/>
<path d="M78.2981 54.1638L77.6006 53.0093H91.7676L91.0701 54.1638" fill="#307756"/>
<path d="M77.6006 53.0332L76.9752 51.9268H92.4411L91.7676 53.0332" fill="#A93F37"/>
<path d="M76.9752 51.9269L76.2776 50.7723H93.1626L92.441 51.9269" fill="#307756"/>
<path d="M76.2777 50.7724L75.5561 49.5216H93.9083L93.1626 50.7724" fill="#A93F37"/>
<path d="M75.5561 49.5216L74.9066 48.343H94.6298L93.9083 49.5216" fill="#307756"/>
<path d="M74.9067 48.343L74.2091 47.2125H95.3274L94.6299 48.343" fill="#A93F37"/>
<path d="M74.2091 47.2126L73.5838 46.0822H95.9768L95.3274 47.2126" fill="#307756"/>
<path d="M95.9768 46.0821L96.6743 44.9276H72.8622L73.5838 46.0821" fill="#A93F37"/>
<path d="M36.687 24.9398L37.4326 26.1906H35.9173L36.687 24.9398Z" fill="#B99028"/>
<path d="M37.4326 26.1906L38.1061 27.3451H35.1957L35.9173 26.1906" fill="#003FA2"/>
<path d="M38.1061 27.3451L38.8277 28.5718H34.4501L35.1957 27.3451" fill="#B99028"/>
<path d="M38.8277 28.5718L39.5012 29.7504H33.7285L34.4501 28.5718" fill="#003FA2"/>
<path d="M39.5012 29.7502L40.1746 30.9048H33.031L33.7285 29.7502" fill="#B99028"/>
<path d="M40.1746 30.9048L40.8241 32.0112H32.3575L33.031 30.9048" fill="#003FA2"/>
<path d="M40.8481 32.0112L41.5216 33.1658H31.6359L32.3816 32.0112" fill="#B99028"/>
<path d="M41.5216 33.1658L42.2191 34.3925H30.8662L31.6359 33.1658" fill="#003FA2"/>
<path d="M42.2191 34.3926L42.9166 35.5712H30.1206L30.8903 34.3926" fill="#B99028"/>
<path d="M42.9166 35.571L43.5901 36.7015H29.4471L30.1206 35.571" fill="#003FA2"/>
<path d="M43.5901 36.7015L44.2155 37.808H28.7496L29.4471 36.7015" fill="#B99028"/>
<path d="M44.2155 37.8079L44.937 38.9624H28.0521L28.7496 37.8079" fill="#003FA2"/>
<path d="M44.9371 38.9624L45.6346 40.2131H27.2824L28.0521 38.9624" fill="#B99028"/>
<path d="M45.6346 40.2131L46.3081 41.3917H26.5849L27.2824 40.2131" fill="#003FA2"/>
<path d="M46.308 41.3917L46.9815 42.5222H25.8633L26.5849 41.3917" fill="#B99028"/>
<path d="M46.9815 42.5223L47.6309 43.6528H25.2139L25.8633 42.5223" fill="#003FA2"/>
<path d="M25.2379 43.6528L24.5163 44.8074H48.3525L47.6309 43.6528" fill="#B99028"/>
<path d="M36.1578 64.6988L35.4362 63.4481H36.9275L36.1578 64.6988Z" fill="#003FA2"/>
<path d="M35.4362 63.4481L34.7387 62.2936H37.6491L36.9275 63.4481" fill="#B99028"/>
<path d="M34.7387 62.2936L34.0412 61.0669H38.3947L37.6491 62.2936" fill="#003FA2"/>
<path d="M34.0412 61.0669L33.3437 59.8883H39.1404L38.3947 61.0669" fill="#B99028"/>
<path d="M33.3436 59.8884L32.6702 58.7339H39.8138L39.1403 59.8884" fill="#003FA2"/>
<path d="M32.6702 58.7336L32.0208 57.5791H40.4873L39.8138 58.7336" fill="#B99028"/>
<path d="M32.0208 57.6273L31.3473 56.4728L41.2329 56.4487L40.4873 57.6033" fill="#003FA2"/>
<path d="M31.3473 56.4728L30.6257 55.2461H42.0026L41.233 56.4487" fill="#B99028"/>
<path d="M30.6257 55.2461L29.9282 54.0675H42.7242L41.9545 55.2461" fill="#003FA2"/>
<path d="M29.9282 54.0675L29.2547 52.913H43.4217L42.7242 54.0675" fill="#B99028"/>
<path d="M29.2547 52.9131L28.6293 51.8066H44.0952L43.4217 52.9131" fill="#003FA2"/>
<path d="M28.6293 51.8065L27.9318 50.652H44.8168L44.0952 51.8065" fill="#B99028"/>
<path d="M27.9318 50.6521L27.2102 49.4254H45.5624L44.8168 50.6521" fill="#003FA2"/>
<path d="M27.2102 49.4253L26.5368 48.2467H46.26L45.5624 49.4253" fill="#B99028"/>
<path d="M26.5368 48.2468L25.8633 47.1163H46.9815L46.2599 48.2468" fill="#003FA2"/>
<path d="M25.8633 47.1163L25.2379 45.9858H47.6309L46.9815 47.1163" fill="#B99028"/>
<path d="M47.6309 45.9858L48.3285 44.8313H24.5163L25.2139 45.9858" fill="#003FA2"/>
<path d="M12.6824 25.036L13.4281 26.2867H11.9368L12.6824 25.036Z" fill="#003FA2"/>
<path d="M13.4281 26.2869L14.1015 27.4414H11.1912L11.9368 26.2869" fill="#A93F37"/>
<path d="M14.1015 27.4413L14.8231 28.668H10.4455L11.1912 27.4413" fill="#003FA2"/>
<path d="M14.8231 28.668L15.4966 29.8465H9.72394L10.4455 28.668" fill="#A93F37"/>
<path d="M15.4966 29.8466L16.17 31.0011H9.0264L9.72392 29.8466" fill="#003FA2"/>
<path d="M16.1701 31.0011L16.8436 32.1075H8.37701L9.02644 31.0011" fill="#A93F37"/>
<path d="M16.8435 32.1074L17.517 33.262L7.63138 33.286L8.37701 32.1315" fill="#003FA2"/>
<path d="M17.517 33.262L18.2146 34.4886H6.86169L7.63138 33.286" fill="#A93F37"/>
<path d="M18.2145 34.4886L18.9121 35.6672H6.11606L6.88574 34.4886" fill="#003FA2"/>
<path d="M18.9121 35.6672L19.5855 36.8218H5.44257L6.11604 35.6672" fill="#A93F37"/>
<path d="M19.5855 36.8218L20.2109 37.9282H4.74506L5.44258 36.8218" fill="#003FA2"/>
<path d="M20.2109 37.9042L20.9325 39.0587H4.04752L4.74504 37.9042" fill="#A93F37"/>
<path d="M20.9325 39.0828L21.63 40.3094H3.27783L4.04752 39.0828" fill="#003FA2"/>
<path d="M21.63 40.3094L22.3035 41.488H2.58032L3.27785 40.3094" fill="#A93F37"/>
<path d="M22.3035 41.488L22.977 42.6185H1.85873L2.58031 41.488" fill="#003FA2"/>
<path d="M22.9769 42.6184L23.6264 43.7489H1.20929L1.85871 42.6184" fill="#A93F37"/>
<path d="M1.20931 43.7489L0.51178 44.9034H24.3239L23.6264 43.7489" fill="#003FA2"/>
<path d="M12.1533 64.7951L11.4317 63.5443H12.9229L12.1533 64.7951Z" fill="#A93F37"/>
<path d="M11.4317 63.5442L10.7342 62.3896H13.6445L12.923 63.5442" fill="#003FA2"/>
<path d="M10.7342 62.3898L10.0367 61.1631H14.3902L13.6446 62.3898" fill="#A93F37"/>
<path d="M10.0366 61.163L9.33911 59.9844H15.1358L14.3902 61.163" fill="#003FA2"/>
<path d="M9.33909 59.9845L8.66562 58.83H15.8333L15.1358 59.9845" fill="#A93F37"/>
<path d="M8.66563 58.8299L8.0162 57.6754H16.4827L15.8333 58.8299" fill="#003FA2"/>
<path d="M8.01622 57.7236L7.34274 56.5691H17.2284L16.4828 57.7236" fill="#A93F37"/>
<path d="M7.34273 56.5691L6.62115 55.3424H17.9981L17.2284 56.5691" fill="#003FA2"/>
<path d="M6.62114 55.3424L5.92361 54.1638H18.7196L17.9499 55.3424" fill="#A93F37"/>
<path d="M5.92362 54.1638L5.2742 53.0093H19.4172L18.7196 54.1638" fill="#003FA2"/>
<path d="M5.25016 53.0332L4.62479 51.9268H20.0906L19.4172 53.0332" fill="#A93F37"/>
<path d="M4.62477 51.9269L3.92725 50.7723H20.8122L20.0906 51.9269" fill="#003FA2"/>
<path d="M3.92724 50.7724L3.20566 49.5216H21.5578L20.8122 50.7724" fill="#A93F37"/>
<path d="M3.20567 49.5216L2.5322 48.343H22.2554L21.5579 49.5216" fill="#003FA2"/>
<path d="M2.53221 48.343L1.85873 47.2125H22.977L22.2554 48.343" fill="#A93F37"/>
<path d="M1.85871 47.2126L1.20929 46.0822H23.6264L22.9769 47.2126" fill="#003FA2"/>
<path d="M23.6264 46.0821L24.3239 44.9276H0.51178L1.20931 46.0821" fill="#A93F37"/>
<path d="M60.9321 25.036L61.6537 26.2867H60.1624L60.9321 25.036Z" fill="#307756"/>
<path d="M61.6536 26.2869L62.3512 27.4414H59.4408L60.1624 26.2869" fill="#003FA2"/>
<path d="M62.3512 27.4413L63.0728 28.692H58.6952L59.4408 27.4413" fill="#307756"/>
<path d="M63.0728 28.6921L63.7462 29.8707H57.9736L58.6952 28.6921" fill="#003FA2"/>
<path d="M63.7462 29.8706L64.4197 31.0011H57.2761L57.9736 29.8706" fill="#307756"/>
<path d="M64.4197 31.0011L65.0691 32.1075H56.6026L57.2761 31.0011" fill="#003FA2"/>
<path d="M65.0691 32.1074L65.7426 33.262L55.857 33.286L56.6026 32.1315" fill="#307756"/>
<path d="M65.7667 33.262L66.4642 34.4886H55.1113L55.881 33.286" fill="#003FA2"/>
<path d="M66.4642 34.4886L67.1617 35.6672H54.3657L55.1354 34.4886" fill="#307756"/>
<path d="M67.1617 35.6672L67.8352 36.8218H53.6922L54.3657 35.6672" fill="#003FA2"/>
<path d="M67.8352 36.8218L68.4606 37.9282H52.9947L53.6922 36.8218" fill="#307756"/>
<path d="M68.4605 37.9282L69.1821 39.0827H52.2971L52.9947 37.9282" fill="#003FA2"/>
<path d="M69.1821 39.0828L69.8797 40.3094H51.5275L52.2972 39.0828" fill="#307756"/>
<path d="M69.8797 40.3094L70.5531 41.488H50.83L51.5275 40.3094" fill="#003FA2"/>
<path d="M70.5531 41.488L71.2266 42.6426H50.1084L50.8299 41.488" fill="#307756"/>
<path d="M71.2266 42.6426L71.876 43.773H49.459L50.1084 42.6426" fill="#003FA2"/>
<path d="M49.4589 43.7729L48.7614 44.9275H72.5736L71.876 43.7729" fill="#307756"/>
<path d="M60.4029 64.7951L59.6813 63.5684H61.1726L60.4029 64.7951Z" fill="#003FA2"/>
<path d="M59.6813 63.5683L58.9838 62.4138H61.8942L61.1726 63.5683" fill="#307756"/>
<path d="M58.9838 62.4138L58.2863 61.1631H62.6398L61.8942 62.4138" fill="#003FA2"/>
<path d="M58.2863 61.163L57.5887 59.9844H63.3854L62.6398 61.163" fill="#307756"/>
<path d="M57.5887 59.9845L56.9153 58.854H64.083L63.3854 59.9845" fill="#003FA2"/>
<path d="M56.9153 58.854L56.2658 57.6995H64.7324L64.083 58.854" fill="#307756"/>
<path d="M56.2659 57.7477L55.5924 56.5931L65.478 56.5691L64.7324 57.7236" fill="#003FA2"/>
<path d="M55.5924 56.5931L54.8708 55.3665H66.2477L65.478 56.5691" fill="#307756"/>
<path d="M54.8708 55.3665L54.1732 54.1638H66.9693L66.1996 55.3665" fill="#003FA2"/>
<path d="M54.1733 54.1638L53.4998 53.0333H67.6668L66.9693 54.1638" fill="#307756"/>
<path d="M53.4998 53.0332L52.8744 51.9268H68.3403L67.6668 53.0332" fill="#003FA2"/>
<path d="M52.8744 51.9269L52.1769 50.7723H69.0618L68.3403 51.9269" fill="#307756"/>
<path d="M52.1769 50.7723L51.4553 49.5457H69.8075L69.0619 50.7723" fill="#003FA2"/>
<path d="M51.4553 49.5456L50.7819 48.3671H70.505L69.8075 49.5456" fill="#307756"/>
<path d="M50.7818 48.3671L50.1084 47.2125H71.2266L70.505 48.3671" fill="#003FA2"/>
<path d="M50.1084 47.2126L49.459 46.0822H71.876L71.2266 47.2126" fill="#307756"/>
<path d="M71.876 46.0821L72.5736 44.9276H48.7614L49.4589 46.0821" fill="#003FA2"/>
<path d="M109.254 25.036L109.975 26.2867H108.484L109.254 25.036Z" fill="#B99028"/>
<path d="M109.975 26.2869L110.673 27.4414H107.763L108.484 26.2869" fill="#307756"/>
<path d="M110.673 27.4413L111.371 28.668H107.017L107.763 27.4413" fill="#B99028"/>
<path d="M111.395 28.668L112.068 29.8465H106.295L107.017 28.668" fill="#307756"/>
<path d="M112.068 29.8466L112.742 31.0011H105.598L106.295 29.8466" fill="#B99028"/>
<path d="M112.742 31.0011L113.391 32.1075H104.924L105.598 31.0011" fill="#307756"/>
<path d="M113.391 32.1074L114.064 33.262L104.179 33.286L104.924 32.1315" fill="#B99028"/>
<path d="M114.064 33.262L114.786 34.4886H103.409L104.179 33.286" fill="#307756"/>
<path d="M114.786 34.4886L115.484 35.6672H102.688L103.457 34.4886" fill="#B99028"/>
<path d="M115.483 35.6672L116.157 36.8218H101.99L102.687 35.6672" fill="#307756"/>
<path d="M116.157 36.8218L116.782 37.9282H101.316L101.99 36.8218" fill="#B99028"/>
<path d="M116.782 37.9042L117.48 39.0587H100.619L101.316 37.9042" fill="#307756"/>
<path d="M117.48 39.0828L118.201 40.3094H99.8492L100.595 39.0828" fill="#B99028"/>
<path d="M118.201 40.3094L118.875 41.488H99.1517L99.8493 40.3094" fill="#307756"/>
<path d="M118.875 41.488L119.548 42.6185H98.4302L99.1518 41.488" fill="#B99028"/>
<path d="M119.548 42.6184L120.198 43.7489H97.7808L98.4302 42.6184" fill="#307756"/>
<path d="M97.7807 43.7489L97.0832 44.9034H120.895L120.198 43.7489" fill="#B99028"/>
<path d="M108.725 64.7951L108.003 63.5443H109.494L108.725 64.7951Z" fill="#307756"/>
<path d="M108.003 63.5442L107.306 62.3896H110.216L109.494 63.5442" fill="#B99028"/>
<path d="M107.306 62.3898L106.584 61.1631H110.962L110.216 62.3898" fill="#307756"/>
<path d="M106.584 61.163L105.911 59.9844H111.683L110.962 61.163" fill="#B99028"/>
<path d="M105.911 59.9845L105.237 58.83H112.381L111.683 59.9845" fill="#307756"/>
<path d="M105.237 58.8299L104.588 57.6754H113.054L112.381 58.8299" fill="#B99028"/>
<path d="M104.588 57.7236L103.914 56.5691H113.8L113.03 57.7236" fill="#307756"/>
<path d="M103.914 56.5691L103.193 55.3424H114.545L113.8 56.5691" fill="#B99028"/>
<path d="M103.193 55.3424L102.495 54.1638H115.291L114.521 55.3424" fill="#307756"/>
<path d="M102.495 54.1638L101.822 53.0093H115.989L115.291 54.1638" fill="#B99028"/>
<path d="M101.822 53.0091L101.196 51.9268H116.662L115.989 53.0091" fill="#307756"/>
<path d="M101.196 51.9269L100.475 50.7723H117.36L116.662 51.9269" fill="#B99028"/>
<path d="M100.475 50.7724L99.7771 49.5216H118.129L117.36 50.7724" fill="#307756"/>
<path d="M99.7771 49.5216L99.1036 48.343H118.827L118.129 49.5216" fill="#B99028"/>
<path d="M99.1037 48.343L98.4302 47.2125H119.548L118.827 48.343" fill="#307756"/>
<path d="M98.4302 47.2126L97.7808 46.0822H120.198L119.548 47.2126" fill="#B99028"/>
<path d="M120.198 46.0821L120.895 44.9276H97.0832L97.7807 46.0821" fill="#307756"/>
<path d="M133.451 24.9398L134.196 26.1906H132.681L133.451 24.9398Z" fill="#307756"/>
<path d="M134.196 26.1906L134.87 27.3451H131.96L132.681 26.1906" fill="#003FA2"/>
<path d="M134.87 27.3451L135.592 28.5718H131.214L131.96 27.3451" fill="#307756"/>
<path d="M135.592 28.5718L136.265 29.7504H130.492L131.214 28.5718" fill="#003FA2"/>
<path d="M136.265 29.7502L136.939 30.8807H129.795L130.492 29.7502" fill="#307756"/>
<path d="M136.938 30.8807L137.588 31.9872H129.145L129.795 30.8807" fill="#003FA2"/>
<path d="M137.588 31.9873L138.285 33.1418L128.376 33.1659L129.145 32.0114" fill="#307756"/>
<path d="M138.285 33.1418L138.983 34.3926H127.63L128.4 33.1659" fill="#003FA2"/>
<path d="M138.983 34.3926L139.68 35.5712H126.909L127.654 34.3926" fill="#307756"/>
<path d="M139.68 35.571L140.354 36.7015H126.211L126.884 35.571" fill="#003FA2"/>
<path d="M140.354 36.7015L140.979 37.808H125.513L126.211 36.7015" fill="#307756"/>
<path d="M140.979 37.8079L141.701 38.9624H124.816L125.513 37.8079" fill="#003FA2"/>
<path d="M141.701 38.9624L142.398 40.1891H124.046L124.816 38.9624" fill="#307756"/>
<path d="M142.398 40.1891L143.072 41.3677H123.349L124.046 40.1891" fill="#003FA2"/>
<path d="M143.072 41.3677L143.745 42.5222H122.627L123.349 41.3677" fill="#307756"/>
<path d="M143.745 42.5223L144.395 43.6528H121.978L122.627 42.5223" fill="#003FA2"/>
<path d="M122.002 43.6528L121.28 44.8074H145.116L144.395 43.6528" fill="#307756"/>
<path d="M132.922 64.6988L132.2 63.4481H133.691L132.922 64.6988Z" fill="#003FA2"/>
<path d="M132.2 63.4481L131.503 62.2936H134.413L133.691 63.4481" fill="#307756"/>
<path d="M131.503 62.2936L130.805 61.0428H135.159L134.413 62.2936" fill="#003FA2"/>
<path d="M130.781 61.0669L130.108 59.8883H135.904L135.159 61.0669" fill="#307756"/>
<path d="M130.108 59.8644L129.434 58.7339H136.602L135.904 59.8644" fill="#003FA2"/>
<path d="M129.434 58.7336L128.785 57.5791H137.251L136.602 58.7336" fill="#307756"/>
<path d="M128.785 57.6273L128.111 56.4728L137.997 56.4487L137.251 57.6033" fill="#003FA2"/>
<path d="M128.111 56.4728L127.39 55.2461H138.766L137.997 56.4487" fill="#307756"/>
<path d="M127.39 55.2461L126.692 54.0675H139.488L138.718 55.2461" fill="#003FA2"/>
<path d="M126.692 54.0675L126.019 52.913H140.186L139.488 54.0675" fill="#307756"/>
<path d="M126.019 52.9131L125.393 51.8066H140.859L140.186 52.9131" fill="#003FA2"/>
<path d="M125.393 51.8065L124.696 50.652H141.581L140.859 51.8065" fill="#307756"/>
<path d="M124.696 50.6521L123.974 49.4254H142.326L141.581 50.6521" fill="#003FA2"/>
<path d="M123.974 49.4253L123.301 48.2467H143.048L142.326 49.4253" fill="#307756"/>
<path d="M123.301 48.2468L122.627 47.0923H143.745L143.024 48.2468" fill="#003FA2"/>
<path d="M122.627 47.0923L122.002 45.9618H144.395L143.745 47.0923" fill="#307756"/>
<path d="M144.395 45.9618L145.092 44.8073H121.28L121.978 45.9618" fill="#003FA2"/>
</g>
<defs>
<clipPath id="clip0">
<rect width="144.581" height="81.2739" fill="white" transform="translate(0.51178 0.863037)"/>
</clipPath>
</defs>
</svg>
