<svg width="219" height="69" viewBox="0 0 219 69" fill="none" xmlns="http://www.w3.org/2000/svg">
<g clip-path="url(#clip0)">
<path d="M40.798 8.32782H15.2384V18.8199H39.3028V26.1965L15.2384 26.1321V38.1304H41.8204V45.4941L0.694946 45.4426L0.797185 0.861084L40.8108 0.964073L40.798 8.32782Z" fill="url(#paint0_linear)"/>
<path d="M83.0609 31.5905H83.2526L83.3293 1.06704L96.5436 1.09279L96.4286 45.6744H79.9938L62.4343 14.3784H62.2426L62.1659 45.5971H48.926L49.041 0.976929H65.6548L83.0609 31.5905Z" fill="url(#paint1_linear)"/>
<path d="M127.369 34.1396H127.675L138.385 1.19583H153.324L136.711 45.7388L118.269 45.7259L101.886 1.10571H117.324L127.369 34.1396Z" fill="url(#paint2_linear)"/>
<path d="M179.612 18.5366H179.804L189.836 1.32449H205.479L186.871 28.3592V45.9061H172.43V28.3592L153.925 1.23438H170.168L179.612 18.5366Z" fill="url(#paint3_linear)"/>
<path d="M59.8655 55.9476H62.332V65.7059H68.2235V67.8043H59.8655V55.9476Z" fill="url(#paint4_linear)"/>
<path d="M78.6519 58.046H72.3642V60.6208H78.1023V62.6548H72.3642V65.7188H78.8947V67.8043H69.9488V55.9476H78.6519V58.046Z" fill="url(#paint5_linear)"/>
<path d="M88.7607 59.6552C88.6862 59.2817 88.5228 58.932 88.2846 58.636C88.0465 58.34 87.7406 58.1067 87.3932 57.9559C86.9654 57.7716 86.5039 57.6795 86.0386 57.6856C85.5909 57.6743 85.1465 57.7659 84.7391 57.9532C84.3317 58.1406 83.972 58.4188 83.6871 58.767C83.0118 59.7104 82.6903 60.8644 82.7797 62.024C82.7204 62.5817 82.7772 63.1457 82.9467 63.6799C83.1161 64.2141 83.3944 64.7069 83.7638 65.1266C84.3735 65.7122 85.1833 66.0394 86.0258 66.0406C86.7695 66.0693 87.4961 65.8115 88.0578 65.3197C88.5961 64.83 88.9447 64.1641 89.0418 63.4401H86.3197V61.4576H91.24V67.8944H89.5914L89.3358 66.401C88.9757 66.866 88.5442 67.2702 88.0578 67.5983C87.3271 68.0167 86.4951 68.2217 85.6552 68.1905C84.9371 68.2108 84.2231 68.0753 83.5616 67.7932C82.9001 67.5111 82.3066 67.089 81.8212 66.5555C80.733 65.324 80.1725 63.7089 80.2621 62.0626C80.1766 60.3696 80.7444 58.7089 81.8468 57.4281C82.3745 56.8513 83.0205 56.3971 83.7399 56.097C84.4594 55.7969 85.235 55.6581 86.013 55.6901C87.3156 55.6255 88.5983 56.0319 89.6297 56.8359C90.5063 57.5489 91.0706 58.5795 91.2016 59.7067L88.7607 59.6552Z" fill="url(#paint6_linear)"/>
<path d="M95.189 55.9476L96.7481 62.7577L97.0804 64.6502L97.4254 62.7964L98.7034 55.9476H101.259L102.665 62.7577L103.023 64.6502L103.381 62.8221L104.953 55.9476H107.509L104.211 67.8042H101.886L100.467 60.8396L100.045 58.548L99.6236 60.8396L98.205 67.8042H95.9174L92.5691 55.9089L95.189 55.9476Z" fill="url(#paint7_linear)"/>
<path d="M117.784 58.046H111.534V60.6208H117.272V62.6548H111.534V65.7188H118.078V67.8043H109.132V55.9476H117.784V58.046Z" fill="url(#paint8_linear)"/>
<path d="M123.381 55.9476H126.18L130.346 67.8043H127.662L126.883 65.3583H122.538L121.745 67.8043H119.189L123.381 55.9476ZM123.228 63.35H126.244L124.736 58.664L123.228 63.35Z" fill="url(#paint9_linear)"/>
<path d="M139.407 56.2179C139.836 56.3966 140.213 56.6797 140.506 57.0418C140.754 57.3451 140.956 57.6834 141.107 58.0459C141.261 58.4571 141.334 58.8941 141.324 59.3333C141.321 59.9133 141.176 60.4836 140.902 60.994C140.757 61.2723 140.558 61.5182 140.316 61.7173C140.075 61.9163 139.796 62.0644 139.497 62.1527C139.98 62.3227 140.39 62.6544 140.66 63.0924C140.914 63.6799 141.028 64.3193 140.992 64.9591V65.7573C140.961 66.1257 140.961 66.496 140.992 66.8644C141.016 67.0027 141.07 67.1341 141.149 67.2496C141.229 67.3652 141.332 67.4621 141.452 67.5339V67.8042H138.73C138.653 67.5339 138.602 67.315 138.564 67.1605C138.503 66.8204 138.469 66.4761 138.461 66.1306V65.0364C138.515 64.5003 138.379 63.9625 138.078 63.5173C137.675 63.2145 137.172 63.0765 136.672 63.1311H134.257V67.8042H131.841V55.9475H137.49C138.141 55.9109 138.792 56.0028 139.407 56.2179ZM134.295 57.9687V61.1614H136.953C137.359 61.1826 137.764 61.1168 138.142 60.9683C138.373 60.8496 138.563 60.6629 138.686 60.4329C138.809 60.203 138.86 59.9407 138.832 59.6809C138.869 59.4004 138.825 59.115 138.705 58.8592C138.585 58.6034 138.394 58.388 138.155 58.2391C137.8 58.0717 137.409 57.9965 137.017 58.0202L134.295 57.9687Z" fill="url(#paint10_linear)"/>
<path d="M213.568 1.36316C214.342 1.3676 215.102 1.56674 215.779 1.94247C216.488 2.32383 217.07 2.90559 217.453 3.61605C217.843 4.30695 218.05 5.08718 218.054 5.88182C218.047 6.66622 217.845 7.4363 217.466 8.12184C217.084 8.82915 216.507 9.41026 215.805 9.79542C215.125 10.1836 214.356 10.3876 213.575 10.3876C212.793 10.3876 212.025 10.1836 211.345 9.79542C210.643 9.41026 210.066 8.82915 209.683 8.12184C209.299 7.43866 209.097 6.66704 209.095 5.88182C209.093 5.08632 209.3 4.30443 209.696 3.61605C210.08 2.90559 210.662 2.32383 211.37 1.94247C212.044 1.5683 212.799 1.36919 213.568 1.36316ZM213.568 2.10983C212.928 2.11664 212.3 2.28482 211.741 2.59903C211.13 2.90812 210.623 3.39173 210.284 3.98939C209.959 4.5666 209.788 5.21836 209.786 5.88182C209.792 6.53655 209.963 7.1789 210.284 7.74851C210.604 8.33437 211.083 8.81656 211.664 9.13886C212.23 9.46767 212.871 9.64077 213.524 9.64077C214.177 9.64077 214.818 9.46767 215.383 9.13886C215.962 8.81321 216.44 8.33185 216.763 7.74851C217.084 7.1789 217.255 6.53655 217.262 5.88182C217.26 5.21836 217.088 4.5666 216.763 3.98939C216.448 3.40443 215.974 2.92214 215.396 2.59903C214.833 2.29826 214.205 2.14341 213.568 2.14845V2.10983ZM211.562 8.36644V3.51306H213.211C213.641 3.48747 214.074 3.53534 214.489 3.65468C214.739 3.73486 214.955 3.89823 215.102 4.11813C215.246 4.32615 215.326 4.57248 215.332 4.82618C215.333 4.99867 215.3 5.16961 215.234 5.32884C215.168 5.48807 215.071 5.63234 214.949 5.75309C214.684 6.02351 214.328 6.18427 213.952 6.20366C214.104 6.2601 214.244 6.34777 214.361 6.46114C214.635 6.75433 214.875 7.07829 215.076 7.42666L215.664 8.36644H214.706L214.284 7.6069C214.077 7.18513 213.801 6.802 213.466 6.47401C213.283 6.3467 213.062 6.28753 212.84 6.30665H212.393V8.36644H211.562ZM212.342 5.63722H213.274C213.599 5.67315 213.927 5.60079 214.207 5.43124C214.288 5.36736 214.352 5.28487 214.394 5.19077C214.437 5.09666 214.456 4.99369 214.45 4.89055C214.451 4.75308 214.411 4.61846 214.335 4.50434C214.247 4.39518 214.133 4.3109 214.003 4.25974C213.751 4.182 213.487 4.15146 213.223 4.16962H212.342V5.63722Z" fill="url(#paint11_linear)"/>
</g>
<defs>
<linearGradient id="paint0_linear" x1="-6.58955" y1="14.8548" x2="206.161" y2="78.8738" gradientUnits="userSpaceOnUse">
<stop offset="0.01" stop-color="#9A9C9E"/>
<stop offset="0.51" stop-color="#DDDEDF"/>
<stop offset="1" stop-color="#7A7B7E"/>
</linearGradient>
<linearGradient id="paint1_linear" x1="-61.0707" y1="-14.2202" x2="7767.87" y2="2514.29" gradientUnits="userSpaceOnUse">
<stop offset="0.01" stop-color="#9A9C9E"/>
<stop offset="0.51" stop-color="#DDDEDF"/>
<stop offset="1" stop-color="#7A7B7E"/>
</linearGradient>
<linearGradient id="paint2_linear" x1="194.99" y1="-620.187" x2="8518.29" y2="2287.89" gradientUnits="userSpaceOnUse">
<stop offset="0.01" stop-color="#9A9C9E"/>
<stop offset="0.51" stop-color="#DDDEDF"/>
<stop offset="1" stop-color="#7A7B7E"/>
</linearGradient>
<linearGradient id="paint3_linear" x1="426.129" y1="-1132.53" x2="8765.55" y2="1785.17" gradientUnits="userSpaceOnUse">
<stop offset="0.01" stop-color="#9A9C9E"/>
<stop offset="0.51" stop-color="#DDDEDF"/>
<stop offset="1" stop-color="#7A7B7E"/>
</linearGradient>
<linearGradient id="paint4_linear" x1="-35.3321" y1="407.142" x2="1415.81" y2="717.279" gradientUnits="userSpaceOnUse">
<stop offset="0.01" stop-color="#9A9C9E"/>
<stop offset="0.51" stop-color="#DDDEDF"/>
<stop offset="1" stop-color="#7A7B7E"/>
</linearGradient>
<linearGradient id="paint5_linear" x1="-24.162" y1="373.232" x2="1519.23" y2="726.286" gradientUnits="userSpaceOnUse">
<stop offset="0.01" stop-color="#9A9C9E"/>
<stop offset="0.51" stop-color="#DDDEDF"/>
<stop offset="1" stop-color="#7A7B7E"/>
</linearGradient>
<linearGradient id="paint6_linear" x1="-26.982" y1="358.804" x2="1835.82" y2="854.787" gradientUnits="userSpaceOnUse">
<stop offset="0.01" stop-color="#9A9C9E"/>
<stop offset="0.51" stop-color="#DDDEDF"/>
<stop offset="1" stop-color="#7A7B7E"/>
</linearGradient>
<linearGradient id="paint7_linear" x1="-37.5548" y1="303.212" x2="2331.32" y2="1205.22" gradientUnits="userSpaceOnUse">
<stop offset="0.01" stop-color="#9A9C9E"/>
<stop offset="0.51" stop-color="#DDDEDF"/>
<stop offset="1" stop-color="#7A7B7E"/>
</linearGradient>
<linearGradient id="paint8_linear" x1="38.1014" y1="272.332" x2="1581.5" y2="625.385" gradientUnits="userSpaceOnUse">
<stop offset="0.01" stop-color="#9A9C9E"/>
<stop offset="0.51" stop-color="#DDDEDF"/>
<stop offset="1" stop-color="#7A7B7E"/>
</linearGradient>
<linearGradient id="paint9_linear" x1="37.2987" y1="248.618" x2="1910.51" y2="782.987" gradientUnits="userSpaceOnUse">
<stop offset="0.01" stop-color="#9A9C9E"/>
<stop offset="0.51" stop-color="#DDDEDF"/>
<stop offset="1" stop-color="#7A7B7E"/>
</linearGradient>
<linearGradient id="paint10_linear" x1="69.2777" y1="216.466" x2="1714.84" y2="620.585" gradientUnits="userSpaceOnUse">
<stop offset="0.01" stop-color="#9A9C9E"/>
<stop offset="0.51" stop-color="#DDDEDF"/>
<stop offset="1" stop-color="#7A7B7E"/>
</linearGradient>
<linearGradient id="paint11_linear" x1="305.222" y1="-389.845" x2="1796.7" y2="59.0219" gradientUnits="userSpaceOnUse">
<stop offset="0.01" stop-color="#9A9C9E"/>
<stop offset="0.51" stop-color="#DDDEDF"/>
<stop offset="1" stop-color="#7A7B7E"/>
</linearGradient>
<clipPath id="clip0">
<rect width="217.359" height="67.2779" fill="white" transform="translate(0.694946 0.861084)"/>
</clipPath>
</defs>
</svg>
