<svg width="166" height="89" viewBox="0 0 166 89" fill="none" xmlns="http://www.w3.org/2000/svg">
<g clip-path="url(#clip0)">
<path d="M158.825 74.2687C156.446 74.2687 155.424 76.4381 155.424 78.5201C155.424 80.9345 156.816 82.7365 158.79 82.7365C160.764 82.7365 162.139 80.987 162.139 78.4851C162.139 76.6131 161.205 74.2687 158.825 74.2687ZM158.825 72.764C159.555 72.7619 160.278 72.9098 160.947 73.1984C161.617 73.487 162.219 73.9099 162.716 74.4408C163.212 74.9716 163.593 75.5988 163.833 76.2828C164.074 76.9667 164.169 77.6928 164.113 78.4151C164.178 79.1652 164.083 79.9203 163.834 80.6315C163.585 81.3427 163.189 81.9941 162.67 82.5434C162.152 83.0928 161.523 83.5278 160.824 83.8202C160.125 84.1127 159.372 84.2561 158.614 84.2411C157.884 84.2433 157.162 84.0954 156.492 83.8068C155.823 83.5183 155.221 83.0952 154.724 82.5644C154.227 82.0336 153.847 81.4064 153.606 80.7224C153.365 80.0384 153.27 79.3124 153.326 78.5901C153.259 77.8409 153.352 77.0862 153.598 76.375C153.845 75.6638 154.24 75.0121 154.757 74.4625C155.274 73.9128 155.902 73.4775 156.6 73.1848C157.298 72.8922 158.05 72.7488 158.808 72.764H158.825ZM149.783 68.6876C150.031 68.6876 150.273 68.7605 150.478 68.8969C150.684 69.0334 150.845 69.2274 150.939 69.4544C151.034 69.6814 151.059 69.9312 151.011 70.1721C150.962 70.4131 150.843 70.6344 150.668 70.8081C150.493 70.9818 150.27 71.1001 150.027 71.1481C149.785 71.196 149.533 71.1714 149.304 71.0774C149.076 70.9834 148.88 70.8242 148.743 70.6199C148.605 70.4156 148.532 70.1754 148.532 69.9298C148.527 69.7653 148.556 69.6017 148.617 69.4488C148.678 69.2959 148.77 69.157 148.887 69.0406C149.005 68.9243 149.145 68.833 149.299 68.7723C149.453 68.7116 149.617 68.6828 149.783 68.6876ZM150.788 83.9962H148.778V73.009H150.788V83.9962ZM143.385 67.8828H145.394V83.9962H143.385V67.8828ZM133.867 70.0698C130.57 70.0698 128.931 73.079 128.931 76.4381C128.931 79.7973 130.694 82.6316 133.831 82.6316C136.969 82.6316 138.767 79.7448 138.767 76.2807C138.767 73.2364 137.18 70.0698 133.867 70.0698ZM133.955 68.4601C138.15 68.4601 140.864 71.6619 140.864 76.1932C140.864 81.4419 137.656 84.2411 133.726 84.2411C129.795 84.2411 126.798 81.1094 126.798 76.4906C126.798 71.8718 129.848 68.4601 133.955 68.4601ZM122.921 68.4601H125.071L124.683 73.9012H123.308L122.921 68.4601ZM118.038 67.8828H120.048V83.9962H118.038V67.8828ZM112.645 67.8828H114.654V83.9962H112.733L112.645 67.8828ZM102.333 77.4354H108.203C108.26 77.0367 108.232 76.6304 108.119 76.2436C108.006 75.8567 107.811 75.4983 107.548 75.192C107.284 74.8857 106.958 74.6387 106.59 74.4675C106.223 74.2962 105.823 74.2046 105.418 74.1987C104.59 74.2596 103.814 74.6253 103.244 75.224C102.673 75.8227 102.348 76.6114 102.333 77.4354ZM110.089 78.87H102.315C102.27 79.3768 102.337 79.8873 102.511 80.3659C102.685 80.8445 102.962 81.2797 103.323 81.6411C103.684 82.0025 104.119 82.2815 104.6 82.4586C105.08 82.6357 105.594 82.7067 106.105 82.6665C107.156 82.6998 108.202 82.5089 109.172 82.1067L109.507 83.5413C108.341 84.0226 107.086 84.2551 105.823 84.2237C105.085 84.2667 104.347 84.1514 103.657 83.8857C102.968 83.6199 102.345 83.21 101.83 82.6837C101.315 82.1575 100.92 81.5273 100.672 80.836C100.425 80.1447 100.33 79.4085 100.394 78.6776C100.394 75.3709 102.351 72.764 105.576 72.764C109.102 72.764 110.142 75.9132 110.142 78.0127C110.142 78.4151 110.142 78.73 110.142 78.94L110.089 78.87ZM88.0558 70.3672V82.4216C88.7213 82.5151 89.3932 82.556 90.0652 82.5441C90.9492 82.6441 91.8445 82.5452 92.6847 82.2546C93.5249 81.9641 94.2882 81.4893 94.9182 80.8657C95.5482 80.2421 96.0285 79.4857 96.3235 78.6525C96.6185 77.8194 96.7206 76.9309 96.6222 76.0532C96.6222 72.4491 94.5775 70.1572 90.3825 70.1572C89.6015 70.1417 88.8212 70.2121 88.0558 70.3672ZM86.064 83.9437V68.915C87.4636 68.7004 88.8781 68.5951 90.2943 68.6001C92.5435 68.4194 94.7768 69.102 96.534 70.5071C97.2616 71.2153 97.8258 72.0715 98.1879 73.0169C98.55 73.9622 98.7014 74.9742 98.6316 75.9832C98.6847 77.0722 98.5153 78.1605 98.1336 79.1828C97.752 80.2051 97.1659 81.1402 96.4107 81.9318C94.5135 83.5076 92.0746 84.2916 89.6069 84.1187C88.4294 84.1288 87.2523 84.0704 86.0817 83.9437H86.064ZM71.346 83.4713L71.8572 81.9492C72.6527 82.4394 73.5651 82.7111 74.5012 82.7365C75.9641 82.7365 76.6516 82.0192 76.6516 81.1095C76.6516 80.1997 76.0699 79.6398 74.5893 79.0974C72.5975 78.3976 71.6633 77.3479 71.6633 75.9832C71.6842 75.5164 71.802 75.0589 72.0093 74.6394C72.2166 74.2198 72.5089 73.8473 72.8679 73.5451C73.227 73.2429 73.6451 73.0175 74.096 72.8831C74.5469 72.7487 75.0208 72.7082 75.4882 72.764C76.4373 72.7544 77.3726 72.9895 78.2027 73.4464L77.6915 74.8985C77.015 74.4801 76.2324 74.2616 75.4353 74.2687C74.2544 74.2687 73.5846 74.951 73.5846 75.7558C73.5846 76.5606 74.2544 77.068 75.6821 77.6104C77.6034 78.3452 78.5905 79.3599 78.5905 80.9345C78.5905 82.859 77.0746 84.2237 74.4483 84.2237C73.3663 84.2411 72.298 83.982 71.346 83.4713ZM67.8208 68.6876C68.0683 68.6876 68.3103 68.7605 68.5161 68.8969C68.7219 69.0334 68.8823 69.2274 68.977 69.4544C69.0717 69.6814 69.0965 69.9312 69.0482 70.1721C68.9999 70.4131 68.8807 70.6344 68.7057 70.8081C68.5307 70.9818 68.3077 71.1001 68.0649 71.1481C67.8222 71.196 67.5705 71.1714 67.3419 71.0774C67.1132 70.9834 66.9177 70.8242 66.7802 70.6199C66.6427 70.4156 66.5693 70.1754 66.5693 69.9298C66.5644 69.7653 66.5935 69.6017 66.6546 69.4488C66.7158 69.2959 66.8078 69.157 66.925 69.0406C67.0422 68.9243 67.1821 68.833 67.3362 68.7723C67.4902 68.7116 67.6551 68.6828 67.8208 68.6876ZM68.8255 83.9962H66.7279V73.009H68.6668L68.8255 83.9962ZM63.5376 73.009V81.0045C63.5376 82.1242 63.5376 83.1214 63.6257 83.9962H61.8631L61.7397 82.2467C61.367 82.8805 60.8308 83.4042 60.1864 83.764C59.542 84.1238 58.8126 84.3066 58.0734 84.2936C56.3108 84.2936 54.2661 83.3314 54.2661 79.4823V73.009H56.2755V79.0974C56.2755 81.1794 56.9101 82.5965 58.7432 82.5965C59.3074 82.5909 59.8578 82.4226 60.3272 82.1119C60.7967 81.8013 61.1649 81.3617 61.3872 80.847C61.5172 80.5182 61.5831 80.1679 61.5811 79.8148V73.009H63.5376ZM46.3696 74.2687C44.0076 74.2687 42.9677 76.4381 42.9677 78.5201C42.9677 80.9345 44.3601 82.7365 46.3343 82.7365C48.3084 82.7365 49.6833 80.987 49.6833 78.4851C49.6833 76.6131 48.7491 74.2687 46.3696 74.2687ZM46.3696 72.764C47.0994 72.7619 47.8219 72.9098 48.4914 73.1984C49.1608 73.487 49.7629 73.9099 50.2596 74.4408C50.7564 74.9716 51.137 75.5988 51.3775 76.2828C51.6181 76.9667 51.7134 77.6928 51.6575 78.4151C51.7218 79.1652 51.6266 79.9203 51.3781 80.6315C51.1295 81.3427 50.7331 81.9941 50.2146 82.5434C49.696 83.0928 49.0669 83.5278 48.3681 83.8202C47.6692 84.1127 46.9163 84.2561 46.158 84.2411C45.4282 84.2433 44.7057 84.0954 44.0362 83.8068C43.3667 83.5183 42.7647 83.0952 42.268 82.5644C41.7713 82.0336 41.3906 81.4064 41.15 80.7224C40.9095 80.0384 40.8142 79.3124 40.8702 78.5901C40.8141 77.8525 40.9127 77.1113 41.1597 76.4134C41.4066 75.7155 41.7967 75.0759 42.3051 74.5351C42.8135 73.9943 43.4293 73.5639 44.1137 73.2712C44.7981 72.9784 45.5362 72.8295 46.2814 72.834L46.3696 72.764ZM31.2109 84.0662V68.7751H33.185V82.4041H39.7773V84.0662H31.2109ZM14.0252 73.009H16.2109L18.6257 79.4999C18.8901 80.2172 19.1545 81.0919 19.3484 81.7393C19.5599 81.0919 19.7891 80.2522 20.0535 79.4474L22.2568 73.009H24.3719L21.3578 80.8295C19.9124 84.6086 18.943 86.5331 17.5682 87.7053C16.8729 88.3423 16.0223 88.7885 15.1004 88.9999L14.6069 87.2504C15.2544 87.0439 15.8538 86.7107 16.3695 86.2706C17.13 85.6829 17.7349 84.9203 18.1322 84.0487C18.2141 83.9024 18.268 83.7422 18.2908 83.5764C18.2757 83.3964 18.2341 83.2195 18.1674 83.0515L14.0252 73.009ZM4.63044 77.6104V79.5873C4.63261 79.8347 4.66214 80.0812 4.71855 80.3221C4.88478 80.9896 5.27246 81.5821 5.81923 82.0042C6.36599 82.4263 7.03998 82.6534 7.73264 82.649C9.83017 82.649 11.0993 80.8995 11.0993 78.4326C11.0993 76.2282 9.95357 74.3561 7.80315 74.3561C7.09043 74.3682 6.40203 74.6155 5.84666 75.059C5.29128 75.5025 4.90059 76.1171 4.73619 76.8055C4.67791 77.0703 4.64254 77.3396 4.63044 77.6104ZM4.27789 83.9962H2.51526C2.51526 83.2439 2.60337 82.1242 2.60337 81.162V67.8828H4.59515V74.776C4.97958 74.1314 5.53416 73.6033 6.19894 73.2487C6.86372 72.8941 7.61347 72.7265 8.36721 72.764C11.1169 72.764 13.0558 75.0385 13.0382 78.3626C13.0382 82.2817 10.5352 84.2411 8.06754 84.2411C7.31687 84.2806 6.57038 84.1075 5.91503 83.742C5.25968 83.3765 4.72244 82.8336 4.366 82.1767L4.27789 83.9962Z" fill="white"/>
<path d="M22.0276 28.0982C22.0276 28.8855 20.5293 29.7253 17.5329 30.6001L5.86425 33.4519C5.3624 33.7197 4.88473 34.0299 4.43652 34.3791C3.97566 34.7878 3.42714 35.0869 2.83252 35.2539C2.57241 35.2532 2.31864 35.1742 2.10467 35.0274C1.8907 34.8806 1.72659 34.6729 1.63394 34.4316L0.893616 32.787C1.87108 31.4046 2.57127 29.8484 2.95592 28.2032C3.49646 26.5469 4.02524 24.8674 4.54228 23.1645C5.21208 21.0825 5.88187 19.0005 6.51642 16.9011C7.73129 13.1165 9.18541 9.41176 10.8701 5.80888C12.7503 1.88987 14.3778 -0.0463198 15.7526 0.000335035C16.2444 0.0246559 16.7212 0.176372 17.1356 0.440341C17.5499 0.704309 17.8875 1.07136 18.1146 1.50498C18.6366 2.2132 18.8979 3.07783 18.8548 3.95435C18.8114 4.46687 18.7048 4.97215 18.5376 5.45895C18.4106 6.04938 18.1778 6.61237 17.8502 7.12105C17.4624 7.27851 16.8984 7.52345 16.0875 7.89086C15.3649 7.57594 15.0123 7.22603 15.0475 6.80614C15.1502 6.35379 15.2857 5.90939 15.453 5.47646C15.7174 4.67166 15.8936 4.19927 15.9642 4.04181L15.6998 3.76187C15.0057 4.2849 14.4092 4.9244 13.9371 5.65143C13.7785 5.87887 13.1968 6.85859 12.1745 8.57316C11.8396 9.203 10.4118 12.8246 8.17329 19.4729C6.8116 23.0678 5.63499 26.7291 4.64803 30.4426V31.2124C5.72324 30.95 7.50349 30.6351 9.93593 30.2502L21.7985 27.7133C21.9395 27.7133 21.9923 27.8358 21.9923 28.0982" fill="white"/>
<path d="M34.2426 25.7884C34.2426 26.5057 33.2908 27.7304 31.3695 29.48C29.4482 31.2295 28.1968 32.1043 27.6504 32.1043H26.7867H25.8701C25.4244 32.0744 24.9923 31.9399 24.6092 31.7118C24.2261 31.4837 23.9031 31.1685 23.6668 30.7922C23.0558 30.0817 22.7021 29.1886 22.6621 28.2553C22.9501 26.3647 23.5454 24.533 24.4247 22.8317C25.6057 20.0674 26.4871 18.6677 27.0511 18.6677C27.479 18.6854 27.8903 18.837 28.226 19.1011C28.5616 19.3651 28.8044 19.7279 28.9195 20.1374C28.7785 20.4173 28.0205 21.8869 26.628 24.3363C25.8509 25.5537 25.3851 26.941 25.2708 28.3778C25.2708 28.6052 25.2708 28.8151 25.2708 29.0251C25.2708 29.235 25.9406 29.5674 26.628 29.5674C28.1188 29.3261 29.5012 28.643 30.594 27.608C31.672 26.6966 32.8214 25.8717 34.0311 25.1411C34.056 25.2103 34.0916 25.2753 34.1369 25.3335C34.2031 25.4379 34.234 25.5604 34.225 25.6834L34.2426 25.7884ZM35.4412 10.3573C34.7025 11.1862 33.8684 11.926 32.9559 12.5617C32.2746 13.1634 31.4853 13.6323 30.6292 13.9439C30.3974 13.9287 30.1725 13.8588 29.9733 13.7402C29.7741 13.6215 29.6061 13.4575 29.4835 13.2616C29.1709 12.9187 28.9846 12.4808 28.9547 12.0194C28.9194 11.9054 28.9194 11.7835 28.9547 11.6695L30.453 10.8297C31.3796 10.3451 32.3799 10.0141 33.4142 9.84995L34.7538 9.64001C34.9653 9.64001 35.1944 9.90245 35.4588 10.4098" fill="white"/>
<path d="M39.6011 28.6752C39.6207 27.6354 39.7929 26.604 40.1122 25.6135C40.5 24.1438 40.6939 23.4265 40.6939 23.479C39.5188 24.7387 38.5494 25.7884 37.7855 26.6282C36.729 27.8189 35.7905 29.1079 34.983 30.4772C34.749 30.5173 34.5229 30.5941 34.3132 30.7047C34.101 30.8273 33.868 30.9103 33.6257 30.9496C33.4425 30.9242 33.2672 30.8594 33.1119 30.7596C32.9566 30.6599 32.8252 30.5277 32.7268 30.3723C32.3919 29.9699 32.2332 29.7424 32.2332 29.6374C32.2332 29.5325 32.5505 28.1153 33.1851 25.6135C33.8196 23.1116 34.3484 21.1346 34.7891 19.7C34.8522 19.5535 34.9439 19.421 35.0588 19.3099C35.1738 19.1988 35.3097 19.1113 35.4589 19.0526C35.7369 18.8866 36.0515 18.7905 36.3754 18.7727C36.5872 18.8036 36.7875 18.8879 36.9571 19.0176L37.5388 19.35C37.5537 20.2991 37.3487 21.2389 36.9395 22.0968C36.594 22.8897 36.3341 23.7166 36.1639 24.5637C36.1676 24.6796 36.2111 24.7907 36.2873 24.8786C37.1609 23.9962 37.9791 23.0613 38.7373 22.0793C39.4789 21.1158 40.2795 20.1985 41.1345 19.3326C41.7978 18.6406 42.6957 18.2168 43.6551 18.1428C44.2015 18.1428 44.4659 18.5977 44.4659 19.525C44.2923 21.1196 43.8701 22.6779 43.2144 24.1438C42.573 25.5366 42.1452 27.0167 41.9453 28.5352C41.9453 29.8824 42.4741 30.5647 43.4965 30.5647C44.8405 30.146 46.1124 29.5266 47.2685 28.7277L47.5329 28.8851C47.5689 28.9264 47.5886 28.9792 47.5886 29.0338C47.5886 29.0884 47.5689 29.1412 47.5329 29.1825C47.0095 30.1178 46.2951 30.9342 45.4354 31.5795C44.762 32.2656 43.8847 32.7193 42.9324 32.8741C40.8878 32.8741 39.742 31.5095 39.5129 28.7626" fill="white"/>
<path d="M59.2544 19.7C59.2544 21.1696 58.0382 22.9366 55.5705 24.9486C53.7714 26.7217 51.45 27.8799 48.943 28.2553C49.0667 29.0208 49.4507 29.7213 50.0311 30.2401C50.6115 30.759 51.3534 31.0649 52.1334 31.1071C53.3006 30.9906 54.4392 30.677 55.5 30.1798C57.2626 29.4625 58.0911 29.0951 58.0911 29.0601C58.2663 29.0238 58.448 29.0337 58.6182 29.0889C58.7883 29.1442 58.9408 29.2429 59.0605 29.375C58.1034 30.3807 56.9605 31.1944 55.6939 31.7719C54.4778 32.5616 53.0982 33.0699 51.6575 33.259C50.9435 33.2727 50.236 33.1218 49.5907 32.8182C48.9453 32.5146 48.3797 32.0667 47.9383 31.5095C47.1183 30.5238 46.6642 29.2886 46.6516 28.0104C46.6516 25.9634 47.7444 23.6015 50.0711 21.0121C52.3978 18.4228 54.601 17.0581 56.6986 17.0581C57.3522 17.1432 57.9586 17.4425 58.4216 17.9083C58.8845 18.3742 59.1776 18.98 59.2544 19.63V19.7ZM56.6633 20.2073C56.5965 20.1244 56.5138 20.0554 56.42 20.0044C56.3263 19.9534 56.2233 19.9212 56.1169 19.9099C54.6034 20.1104 53.2202 20.8655 52.2391 22.0268C51.2015 22.985 50.3579 24.1311 49.7538 25.4035C50.5317 25.4028 51.2964 25.204 51.9747 24.8261C52.3096 24.6512 53.0147 24.1613 54.0899 23.3915C55.197 22.5548 56.0806 21.4615 56.6633 20.2073Z" fill="white"/>
<path d="M80.3531 27.7129C80.1945 28.7627 79.2074 29.9349 77.3919 31.2121C76.204 32.2496 74.7426 32.9293 73.1792 33.1716H72.8091C72.6865 33.1519 72.5615 33.1519 72.4389 33.1716C71.7673 33.103 71.1424 32.7991 70.6763 32.3143C70.23 31.9861 69.8577 31.569 69.5834 31.0896C69.0907 30.1357 68.8254 29.0822 68.8078 28.0104C68.8053 27.6452 68.8467 27.2811 68.9312 26.9257L65.406 30.0573C64.2932 31.0686 62.8732 31.6841 61.3695 31.8069C60.9289 31.8069 60.5059 31.422 60.0829 30.6522C59.735 30.1311 59.5341 29.527 59.5012 28.9027C59.5012 27.3106 60.8055 25.1061 63.3966 22.3068C65.9877 19.5075 68.0323 18.1254 69.5129 18.1604C69.6954 18.1462 69.8784 18.181 70.0427 18.261C70.207 18.341 70.3467 18.4634 70.4471 18.6153L70.9407 19.5425C71.1169 19.1576 71.3284 18.7552 71.5223 18.3528C71.8866 17.653 72.2391 17.3031 72.5799 17.3031C73.0778 17.3897 73.528 17.6503 73.849 18.0379C74.0429 18.3528 73.9724 18.9477 73.6551 19.7874C73.1846 20.4325 72.7829 21.1244 72.4565 21.8519C72.0879 22.8334 71.7876 23.8389 71.5576 24.8612C71.3611 25.5547 71.2196 26.2626 71.1345 26.9782C71.1283 27.8234 71.3279 28.6577 71.7162 29.41C71.8899 29.8525 72.1997 30.2294 72.6016 30.4869C73.0035 30.7445 73.477 30.8697 73.9548 30.8447C75.01 30.7217 76.0135 30.3232 76.8631 29.6899C77.8854 29.0251 78.9078 28.3603 79.9301 27.7305L80.3531 27.7129ZM69.7773 21.782C69.5797 21.7501 69.3889 21.685 69.2133 21.5895C69.0281 21.4871 68.8245 21.4217 68.614 21.3971C67.8685 21.5543 67.1944 21.9472 66.6927 22.5167C66.1816 22.9716 65.6528 23.444 65.1416 23.9339C64.4182 24.6048 63.7897 25.3699 63.2732 26.2083C62.7508 26.9394 62.3793 27.7659 62.1804 28.6402C62.1804 28.6402 62.3038 28.6402 62.4095 28.8152C62.4512 28.8631 62.5025 28.9019 62.5602 28.929C62.6179 28.9561 62.6807 28.971 62.7444 28.9726C63.1675 28.9726 64.2779 28.1853 66.0758 26.5932C67.0694 25.7574 67.9947 24.8448 68.8431 23.8639C69.2723 23.2282 69.5883 22.5239 69.7773 21.782Z" fill="white"/>
<path d="M112.821 20.8197C112.821 19.1576 111.605 17.9155 109.207 17.1282C107.534 16.5566 105.777 16.2669 104.008 16.2709C102.575 16.3198 101.164 16.6343 99.8478 17.1982C98.945 17.6093 97.9992 17.9203 97.0276 18.1254C96.7456 18.1254 96.4107 17.8105 96.0229 17.1982C94.3761 19.5834 93.0489 22.1711 92.0746 24.8962C91.9024 25.881 91.6788 26.8562 91.4048 27.8179C91.2631 28.1587 91.0463 28.4636 90.7703 28.7102C90.51 28.9504 90.2951 29.2348 90.1357 29.55H89.554C89.1839 29.55 88.8843 29.2876 88.6199 28.7452C88.461 28.4468 88.365 28.1194 88.3378 27.783C88.3378 27.783 88.6375 27.0832 89.2191 25.841C89.5974 24.9735 90.0331 24.1319 90.5235 23.3216C91.017 22.5343 91.8631 20.8722 93.0793 18.3528C94.1369 16.1309 95.1768 13.8915 96.2168 11.6521C97.367 9.25747 98.6377 6.92178 100.024 4.65382V4.14643C99.9183 4.02397 99.5129 3.95401 98.8079 3.95401C97.9913 3.96608 97.182 4.10782 96.4107 4.37389C95.3531 4.74129 94.789 5.2137 94.648 5.82605C94.507 6.43839 94.5423 7.03324 94.5247 7.57561C94.5136 7.74047 94.4694 7.90147 94.3949 8.04919C94.3203 8.19692 94.2168 8.32838 94.0904 8.43591C93.964 8.54345 93.8173 8.62489 93.6588 8.67543C93.5003 8.72598 93.3333 8.7446 93.1674 8.73027C92.7796 8.73027 92.2332 8.36289 91.5282 7.61058C90.8231 6.85827 90.4882 6.36838 90.4882 6.07096C90.4882 3.02673 95.077 1.50464 104.254 1.50464C104.59 1.53148 104.921 1.59602 105.241 1.69706C105.542 1.78306 105.848 1.84741 106.158 1.88954C107.646 1.99199 109.083 2.46751 110.335 3.27166C111.044 3.5721 111.66 4.05469 112.118 4.66973C112.577 5.28477 112.862 6.01001 112.944 6.77077C112.944 7.87299 112.045 9.20269 110.265 10.7423C109.119 11.6346 107.974 12.4918 106.74 13.4016L110.159 14.4338C111.46 14.8584 112.686 15.4843 113.79 16.2884C114.304 16.6696 114.722 17.163 115.012 17.7303C115.302 18.2977 115.457 18.9237 115.465 19.56C115.465 21.9219 114.019 24.3713 111.129 26.9432C108.491 29.2527 105.521 31.1575 102.315 32.5943C100.061 33.8306 97.5797 34.6041 95.0182 34.8687C94.53 34.8706 94.0475 34.7649 93.6055 34.5591C93.1635 34.3534 92.773 34.0528 92.4624 33.679C92.1304 33.3514 91.8674 32.9614 91.6889 32.5319C91.5103 32.1023 91.4197 31.6418 91.4224 31.1771C91.4607 29.4966 92.1338 27.8917 93.3085 26.6807C94.4879 25.4543 95.8069 24.3681 97.2391 23.4441H98.0852C98.0852 23.794 97.9266 24.2139 97.8208 24.6688C95.2826 26.6458 94.0135 28.6577 94.0135 30.7222C94.0135 31.5095 94.8948 31.9119 96.6574 31.9119C98.5788 31.6347 100.432 31.0058 102.122 30.0574C104.629 28.879 106.994 27.4236 109.172 25.7185C111.516 23.8465 112.697 22.2194 112.697 20.7847L112.821 20.8197ZM110.089 7.31313C110.089 6.19341 109.137 5.26617 107.075 4.54885C105.82 4.05882 104.491 3.78088 103.144 3.72656C103.144 3.72656 102.086 5.47614 100.165 8.7828C98.2438 12.0895 97.1862 14.0314 96.9395 14.7487H97.6093C98.4325 14.3378 99.3024 14.0265 100.2 13.8215L100.941 13.5415C101.187 13.4374 101.449 13.3725 101.716 13.3491C103.406 12.8844 104.979 12.074 106.334 10.9698C108.82 9.22019 110.071 8.08293 110.089 7.31313Z" fill="white"/>
<path d="M126.375 26.2433C125.778 27.8816 124.841 29.3776 123.626 30.6347C123.118 31.3233 122.475 31.903 121.736 32.339C120.997 32.7749 120.177 33.0581 119.325 33.1715C118.699 33.1656 118.09 32.9674 117.581 32.604C117.073 32.2406 116.691 31.7299 116.487 31.1421C116.001 29.997 115.767 28.7624 115.8 27.5205C115.995 25.8333 116.6 24.2183 117.562 22.8142C118.359 21.4185 119.311 20.1157 120.4 18.9302C121.08 18.2164 121.879 17.6246 122.762 17.1806C123.308 16.8743 123.905 16.6669 124.525 16.5682C126.464 16.5682 127.451 17.8629 127.451 20.5747C127.414 22.486 127.081 24.3802 126.464 26.1908L126.375 26.2433ZM123.961 26.0334C124.751 24.3904 125.195 22.6042 125.265 20.7847C125.265 20.0149 125.142 19.6125 124.895 19.56C123.943 20.5397 123.414 21.0121 123.256 21.0121C123.097 21.0121 123.062 21.0121 123.062 20.8721C123.062 20.7322 123.062 20.7147 122.833 20.7147C121.869 20.7147 120.847 21.7644 119.766 23.8639C119.038 25.0725 118.554 26.4092 118.338 27.8004C118.332 28.3999 118.446 28.9945 118.673 29.55C118.955 30.2148 119.36 30.5647 119.907 30.5822C120.453 30.5997 121.422 29.9874 122.409 28.6227C123.03 27.8126 123.551 26.9315 123.961 25.9984" fill="white"/>
<path d="M151.317 27.3455C151.33 27.4325 151.33 27.521 151.317 27.6079C151.051 28.3557 150.651 29.0493 150.136 29.655C149.559 30.3856 148.883 31.0332 148.126 31.5795C147.27 32.25 146.312 32.7815 145.289 33.1541C144.754 33.2675 144.201 33.2675 143.667 33.1541C143.099 33.0893 142.548 32.9171 142.045 32.6467C140.388 31.5969 139.56 29.5849 139.56 26.6107C139.552 25.7579 139.641 24.907 139.824 24.0739C138.865 25.8226 137.679 27.44 136.299 28.8851C134.078 31.2179 132.192 32.4601 130.641 32.6117C130.306 32.6117 129.813 32.2968 129.178 31.6669C128.761 31.3297 128.424 30.9057 128.191 30.4248C128.085 28.6635 129.354 26.0567 131.998 22.6042C134.766 19.1051 137.145 17.1981 139.172 17.1106C139.406 17.0753 139.644 17.0753 139.877 17.1106C140.191 17.4312 140.485 17.7701 140.759 18.1254L143.596 12.6317C144.559 10.4352 145.998 8.47605 147.809 6.89319L148.708 7.31307C148.741 7.50891 148.82 7.69448 148.937 7.85542C149.057 8.0147 149.136 8.20106 149.166 8.39784C149.182 8.44312 149.182 8.4925 149.166 8.53778C147.569 10.8479 146.182 13.2954 145.024 15.8509C144.2 17.5446 143.511 19.2995 142.962 21.0996C142.318 22.8952 141.95 24.7765 141.869 26.6807C141.899 27.425 142.036 28.1614 142.274 28.8676C142.359 29.3558 142.6 29.8038 142.962 30.1444C143.325 30.485 143.788 30.7 144.284 30.7572C145.521 30.7174 146.702 30.2395 147.615 29.41L150.77 27.1006C150.853 26.9839 151.029 27.0365 151.299 27.2581L151.317 27.3455ZM139.172 20.7497C139.159 20.5692 139.077 20.4004 138.943 20.2773C138.352 20.2434 137.771 20.4378 137.321 20.8197L135.982 21.9394C134.856 22.9325 133.867 24.0677 133.038 25.316C131.949 26.4674 131.204 27.8972 130.888 29.445C130.885 29.5184 130.9 29.5913 130.93 29.6581C130.961 29.7249 131.007 29.7838 131.064 29.8299C132.191 29.4977 133.2 28.8545 133.972 27.9753C134.829 27.1514 135.592 26.2361 136.246 25.246L137.833 23.1991C138.467 22.4987 138.926 21.6595 139.172 20.7497Z" fill="white"/>
<path d="M165.894 16.8483C165.894 17.4256 165.012 18.7203 163.267 20.6973L160.553 23.6541C159.428 26.656 158.469 29.7164 157.68 32.8217C156.473 37.7419 154.383 42.406 151.511 46.5907C149.931 48.8873 147.688 50.656 145.077 51.6645C143.947 52.0755 142.755 52.2943 141.552 52.3118C140.258 52.3376 138.975 52.0833 137.791 51.5666C136.607 51.0499 135.55 50.2833 134.695 49.3201C132.968 47.5416 132.018 45.1588 132.051 42.6892C131.925 41.1107 132.157 39.5242 132.731 38.0465C133.304 36.5689 134.204 35.2379 135.365 34.1514C135.616 33.863 135.9 33.6047 136.211 33.3816C136.123 33.3816 136.352 33.3816 136.863 33.3816C136.556 34.7076 135.878 35.9205 134.907 36.8807C134.887 37.6713 134.781 38.4574 134.589 39.2251C134.393 40.0462 134.275 40.8839 134.237 41.727C134.134 43.6898 134.605 45.6403 135.594 47.343C136.164 48.2337 136.967 48.9545 137.916 49.4289C138.866 49.9032 139.927 50.1135 140.988 50.0374C145.547 50.0374 149.407 46.9348 152.568 40.7297C154.582 36.5928 156.079 32.2275 157.028 27.7305C157.028 27.7305 157.028 27.6431 156.798 27.6431C156.569 27.6431 155.706 28.5528 153.696 30.3724C151.687 32.1919 150.453 33.1191 150.012 33.1191C149.572 33.1191 149.219 32.8392 148.708 32.2794C148.326 31.9438 148.06 31.4967 147.95 31.0022C148.171 28.9157 148.85 26.9029 149.942 25.1062C150.835 23.5961 151.562 21.9947 152.11 20.3299C152.424 20.1864 152.769 20.1204 153.115 20.1374C153.502 20.1374 153.855 20.4174 154.172 20.9422C154.385 21.28 154.513 21.6644 154.542 22.062C154.542 22.062 153.961 22.8842 152.78 24.6688C151.825 25.9925 151.219 27.5322 151.017 29.1477C151.862 28.7172 152.644 28.1758 153.344 27.538C153.996 26.9082 154.648 26.3134 155.335 25.701C156.023 25.0887 157.098 24.1264 158.543 22.7618C159.196 21.3971 159.83 20.0324 160.482 18.6328C161.945 15.991 163.355 14.6788 164.66 14.6788C164.995 14.6788 165.33 15.0287 165.647 15.746C165.819 16.1295 165.932 16.5364 165.982 16.9532" fill="white"/>
</g>
<defs>
<clipPath id="clip0">
<rect width="165" height="89" fill="white" transform="translate(0.893616)"/>
</clipPath>
</defs>
</svg>
