<svg width="38" height="38" viewBox="0 0 38 38" fill="none" xmlns="http://www.w3.org/2000/svg">
<g clip-path="url(#clip0)">
<path d="M36.6842 32.2869L29.9852 25.5879C30.1693 25.3075 30.1382 24.9273 29.8917 24.6808C29.6453 24.4344 29.2649 24.4032 28.9846 24.5873L27.197 22.7997C28.5331 20.8162 29.3742 18.5188 29.6175 16.1227C29.9508 12.841 29.1572 9.51439 27.3831 6.75551C27.1672 6.41983 26.7201 6.32278 26.3845 6.53857C26.0489 6.75442 25.9518 7.20153 26.1676 7.53713C29.4854 12.6963 28.7402 19.5942 24.3958 23.9386C19.2686 29.0659 10.926 29.0659 5.79864 23.9386C0.671393 18.8114 0.671393 10.4688 5.79864 5.34149C10.1477 0.992467 16.8259 0.222044 22.0389 3.46757C22.3775 3.67836 22.8232 3.57488 23.0341 3.2361C23.2451 2.89739 23.1414 2.4518 22.8027 2.24086C20.0517 0.528161 16.7527 -0.221234 13.5128 0.130483C10.2235 0.487692 7.12103 1.9755 4.77673 4.31965C-0.913899 10.0104 -0.913899 19.2698 4.77673 24.9604C7.62212 27.8058 11.3596 29.2285 15.0972 29.2285C17.9447 29.2285 20.7916 28.4017 23.2445 26.7503L25.0232 28.529C24.7559 28.8121 24.7602 29.2581 25.0373 29.5352C25.1784 29.6764 25.3633 29.7469 25.5482 29.7469C25.7265 29.7469 25.9045 29.6806 26.0435 29.5494L32.7326 36.2385C33.271 36.7769 33.9788 37.0456 34.6885 37.0456C35.4047 37.0456 36.123 36.7717 36.6702 36.2244C37.7596 35.1349 37.7659 33.3685 36.6842 32.2869ZM24.7355 26.1978L26.6434 24.2898L27.9522 25.5986L26.0442 27.5065L24.7355 26.1978ZM35.6483 35.2026C35.1222 35.7286 34.2727 35.735 33.7545 35.2166L27.0661 28.5282L28.974 26.6202L35.6623 33.3086C36.1806 33.827 36.1743 34.6766 35.6483 35.2026Z" fill="white"/>
<path d="M25.4348 4.33674L25.4191 4.32106C25.1379 4.03807 24.6804 4.0367 24.3973 4.31795C24.1143 4.59921 24.1129 5.05673 24.3942 5.33979L24.413 5.35865C24.5541 5.49979 24.739 5.57032 24.9239 5.57032C25.1088 5.57032 25.2937 5.49979 25.4348 5.35865C25.7169 5.07653 25.7169 4.61901 25.4348 4.33674Z" fill="white"/>
<path d="M15.0972 3.51318C8.96167 3.51318 3.97006 8.50479 3.97006 14.6403C3.97006 20.7758 8.96167 25.7674 15.0972 25.7674C21.2327 25.7674 26.2243 20.7758 26.2243 14.6403C26.2243 8.50479 21.2327 3.51318 15.0972 3.51318ZM15.0972 24.3223C9.75847 24.3223 5.41516 19.979 5.41516 14.6403C5.41516 9.30159 9.75847 4.95828 15.0972 4.95828C20.4359 4.95828 24.7792 9.30159 24.7792 14.6403C24.7792 19.979 20.4359 24.3223 15.0972 24.3223Z" fill="white"/>
<path d="M17.8467 13.7011C18.2968 13.116 18.5653 12.3844 18.5653 11.5908V10.6444C18.5653 8.73208 17.0095 7.17627 15.0971 7.17627C13.1848 7.17627 11.629 8.73208 11.629 10.6444V11.5908C11.629 12.3844 11.8974 13.1161 12.3476 13.7011C10.0495 14.1344 8.30527 16.1556 8.30527 18.5778V18.9512C8.30527 19.3502 8.62873 19.6737 9.02778 19.6737H21.1664C21.5654 19.6737 21.8889 19.3502 21.8889 18.9512V18.5778C21.889 16.1557 20.1448 14.1345 17.8467 13.7011ZM13.0741 10.6444C13.0741 9.52895 13.9817 8.62136 15.0971 8.62136C16.2126 8.62136 17.1202 9.52895 17.1202 10.6444V11.5908C17.1202 12.7063 16.2126 13.6139 15.0971 13.6139C13.9817 13.6139 13.0741 12.7063 13.0741 11.5908V10.6444ZM9.76756 18.2286C9.94346 16.4516 11.4467 15.059 13.2692 15.059H16.9252C18.7476 15.059 20.2509 16.4516 20.4268 18.2286H9.76756Z" fill="white"/>
<path d="M32.4634 0.911865C32.0644 0.911865 31.7409 1.23533 31.7409 1.63438V2.53249C31.7409 2.93147 32.0644 3.25501 32.4634 3.25501C32.8625 3.25501 33.186 2.93154 33.186 2.53249V1.63445C33.186 1.23533 32.8625 0.911865 32.4634 0.911865Z" fill="white"/>
<path d="M32.4634 5.21606C32.0644 5.21606 31.7409 5.53953 31.7409 5.93858V6.83669C31.7409 7.23574 32.0644 7.55921 32.4634 7.55921C32.8625 7.55921 33.186 7.23574 33.186 6.83669V5.93865C33.186 5.5396 32.8625 5.21606 32.4634 5.21606Z" fill="white"/>
<path d="M35.0646 3.51318H34.1665C33.7674 3.51318 33.444 3.83664 33.444 4.2357C33.444 4.63475 33.7674 4.95821 34.1665 4.95821H35.0646C35.4637 4.95821 35.7871 4.63475 35.7871 4.2357C35.7871 3.83664 35.4637 3.51318 35.0646 3.51318Z" fill="white"/>
<path d="M30.7604 3.51318H29.8623C29.4632 3.51318 29.1397 3.83664 29.1397 4.2357C29.1397 4.63475 29.4632 4.95821 29.8623 4.95821H30.7604C31.1594 4.95821 31.4829 4.63475 31.4829 4.2357C31.4829 3.83664 31.1595 3.51318 30.7604 3.51318Z" fill="white"/>
<path d="M4.97593 29.8196C4.57688 29.8196 4.25342 30.143 4.25342 30.5421V31.4402C4.25342 31.8393 4.57688 32.1627 4.97593 32.1627C5.37498 32.1627 5.69844 31.8393 5.69844 31.4402V30.5421C5.69844 30.143 5.37498 29.8196 4.97593 29.8196Z" fill="white"/>
<path d="M4.97593 34.1238C4.57688 34.1238 4.25342 34.4472 4.25342 34.8463V35.7444C4.25342 36.1435 4.57688 36.4669 4.97593 36.4669C5.37498 36.4669 5.69844 36.1435 5.69844 35.7444V34.8463C5.69844 34.4472 5.37498 34.1238 4.97593 34.1238Z" fill="white"/>
<path d="M7.57702 32.4209H6.6789C6.27985 32.4209 5.95639 32.7444 5.95639 33.1434C5.95639 33.5425 6.27985 33.8659 6.6789 33.8659H7.57702C7.97607 33.8659 8.29953 33.5425 8.29953 33.1434C8.29953 32.7444 7.97607 32.4209 7.57702 32.4209Z" fill="white"/>
<path d="M3.27291 32.4209H2.37479C1.97574 32.4209 1.65228 32.7444 1.65228 33.1434C1.65228 33.5425 1.97574 33.8659 2.37479 33.8659H3.27291C3.67196 33.8659 3.99542 33.5425 3.99542 33.1434C3.99542 32.7444 3.67196 32.4209 3.27291 32.4209Z" fill="white"/>
</g>
<defs>
<clipPath id="clip0">
<rect width="37" height="37" fill="white" transform="translate(0.5 0.0456543)"/>
</clipPath>
</defs>
</svg>
